<svg width="25" height="25" viewBox="0 0 25 25" fill="none" xmlns="http://www.w3.org/2000/svg">
<path d="M22.3084 11.4849L12.4992 21.1537L2.68992 11.4833C2.07498 10.873 1.07615 10.873 0.461207 11.4833C-0.153736 12.0936 -0.153736 13.0815 0.461207 13.6902L11.3849 24.4578C11.9763 25.043 13.0206 25.0462 13.6151 24.4578L24.5388 13.6887C25.1537 13.08 25.1537 12.0905 24.5388 11.4818C23.9222 10.8747 22.9233 10.8747 22.3084 11.4849Z" fill="white"/>
<path d="M11.3849 13.5342C11.9763 14.1194 13.0206 14.1225 13.6151 13.5342L24.5388 2.76658C25.1537 2.15631 25.1537 1.16838 24.5388 0.559663C23.9238 -0.0506088 22.925 -0.0506088 22.3101 0.559663L12.4993 10.2285L2.68992 0.559663C2.07498 -0.0506088 1.07615 -0.0506088 0.461207 0.559663C-0.153736 1.16993 -0.153736 2.15786 0.461207 2.76658L11.3849 13.5342Z" fill="white"/>
</svg>
