<svg width="20" height="21" viewBox="0 0 20 21" fill="none" xmlns="http://www.w3.org/2000/svg">
<path fill-rule="evenodd" clip-rule="evenodd" d="M20 7.18438V14.6553C20 16.3066 19.3415 17.8903 18.1694 19.058C16.9972 20.2257 15.4074 20.8817 13.7498 20.8817H11.5626V13.8859H13.8928L14.3356 11.0055H11.5626V9.13618C11.5626 8.34938 11.9487 7.57995 13.1923 7.57995H14.4539V5.12845C13.7134 5.00982 12.9651 4.94529 12.2152 4.93536C9.9314 4.93536 8.44035 6.3137 8.44035 8.81148V11.007H5.8996V13.8873H8.44035V20.8831H6.25023C5.42931 20.8831 4.61644 20.722 3.85803 20.409C3.09963 20.096 2.41054 19.6373 1.83014 19.0589C1.24973 18.4806 0.789372 17.7941 0.475354 17.0385C0.161336 16.2829 -0.00019052 15.4731 1.6864e-07 14.6553V7.18438C1.6864e-07 5.53304 0.658504 3.94934 1.83065 2.78167C3.00279 1.614 4.59256 0.958008 6.25023 0.958008L13.7498 0.958008C15.4074 0.958008 16.9972 1.614 18.1694 2.78167C19.3415 3.94934 20 5.53304 20 7.18438Z" fill="#FF7E00"/>
</svg>
