<svg width="20" height="21" viewBox="0 0 20 21" fill="none" xmlns="http://www.w3.org/2000/svg">
<path fill-rule="evenodd" clip-rule="evenodd" d="M13.7498 0.958008H6.25023C4.59256 0.958008 3.00279 1.614 1.83065 2.78167C0.658504 3.94934 0 5.53304 0 7.18438L0 14.6553C0 16.3066 0.658504 17.8903 1.83065 19.058C3.00279 20.2257 4.59256 20.8817 6.25023 20.8817H13.7498C15.4074 20.8817 16.9972 20.2257 18.1694 19.058C19.3415 17.8903 20 16.3066 20 14.6553V7.18438C20 5.53304 19.3415 3.94934 18.1694 2.78167C16.9972 1.614 15.4074 0.958008 13.7498 0.958008V0.958008ZM7.62731 15.1319H5.84806V9.42472H7.62731V15.1319ZM6.73805 8.64443C6.53376 8.645 6.3339 8.58518 6.16376 8.47253C5.99363 8.35989 5.86087 8.19949 5.78229 8.01164C5.70372 7.82378 5.68286 7.61693 5.72236 7.41727C5.76186 7.2176 5.85995 7.0341 6.0042 6.88999C6.14844 6.74589 6.33237 6.64766 6.53269 6.60775C6.73301 6.56784 6.94071 6.58803 7.1295 6.66578C7.3183 6.74352 7.47969 6.87533 7.59324 7.0445C7.7068 7.21366 7.76741 7.4126 7.76741 7.6161C7.76741 7.88833 7.65906 8.14945 7.4661 8.34222C7.27314 8.53498 7.01132 8.64366 6.73805 8.64443ZM14.2942 15.1319H12.5157V12.3549C12.5157 11.6933 12.5034 10.8421 11.5909 10.8421C10.6646 10.8421 10.5223 11.5653 10.5223 12.3072V15.1275H8.74378V9.42472H10.4533V10.2043H10.4773C10.7147 9.7552 11.2954 9.28225 12.1614 9.28225C13.9632 9.28225 14.2964 10.4639 14.2964 11.9999L14.2942 15.1319Z" fill="#FF7E00"/>
</svg>
