<svg width="18" height="13" viewBox="0 0 18 13" fill="none" xmlns="http://www.w3.org/2000/svg">
<path d="M16.125 0.270996H1.87499C0.841502 0.270996 0 1.10929 0 2.13887V10.3574C0 11.3869 0.841502 12.2252 1.87499 12.2252H16.125C17.1585 12.2252 18 11.3869 18 10.3574V2.13887C18 1.10929 17.1585 0.270996 16.125 0.270996ZM6.61501 6.9086L2.115 10.6443C2.04525 10.7026 1.95975 10.731 1.87499 10.731C1.76699 10.731 1.6605 10.6854 1.58625 10.5965C1.4535 10.4381 1.47526 10.202 1.63424 10.0698L6.13425 6.33406C6.29326 6.20255 6.53025 6.22423 6.663 6.38187C6.79575 6.54101 6.77403 6.77709 6.61501 6.9086ZM9.00002 7.00796C8.58753 7.00796 8.17427 6.88541 7.81427 6.63963L1.66349 2.44741C1.49249 2.33086 1.449 2.09849 1.56523 1.92814C1.68149 1.75779 1.91472 1.7137 2.08649 1.83102L8.23727 6.02321C8.70003 6.33851 9.29853 6.33851 9.76203 6.02321L15.9128 1.83102C16.0845 1.7152 16.3178 1.75779 16.4341 1.92814C16.5511 2.09849 16.5076 2.33086 16.3366 2.44741L10.1858 6.63963C9.82577 6.88541 9.41251 7.00796 9.00002 7.00796ZM16.413 10.5965C16.3388 10.6854 16.2323 10.7309 16.125 10.7309C16.0403 10.7309 15.9556 10.7025 15.885 10.6443L11.385 6.90856C11.226 6.77632 11.2043 6.54097 11.337 6.38183C11.4698 6.2242 11.706 6.20252 11.8658 6.33403L16.3658 10.0697C16.524 10.202 16.5458 10.4381 16.413 10.5965Z" fill="#FF7E00"/>
</svg>
