<svg width="463" height="8" viewBox="0 0 463 8" fill="none" xmlns="http://www.w3.org/2000/svg">
<path d="M6.85283 6.29603C6.53885 6.75179 6.13765 7.13539 5.67432 7.42282C5.211 7.71026 4.69552 7.89535 4.16013 7.96653C3.62475 8.0377 3.08097 7.99341 2.56283 7.83645C2.04468 7.67948 1.56331 7.41321 1.14883 7.05429C0.62378 6.56326 0.253611 5.91924 0.0866925 5.20638C-0.0802259 4.49353 -0.036131 3.74498 0.213216 3.05855C0.200994 2.88555 0.200994 2.71185 0.213216 2.53885C0.574332 0.16185 3.60278 -0.519726 5.41657 0.383362C5.90126 0.657167 6.32608 1.03219 6.66428 1.48481C7.00248 1.93744 7.24674 2.45785 7.38166 3.01329C7.51658 3.56872 7.53925 4.14714 7.44823 4.71212C7.35722 5.2771 7.15449 5.81639 6.85283 6.29603Z" fill="#3C3C3B"/>
<path d="M19.1635 6.29607C18.8483 6.75706 18.4441 7.14487 17.9766 7.43483C17.5091 7.72478 16.9886 7.91054 16.4482 7.98026C15.9078 8.04998 15.3593 8.00215 14.8377 7.8398C14.3161 7.67745 13.8327 7.40415 13.4184 7.03729C12.9037 6.54263 12.5434 5.89932 12.3839 5.19021C12.2245 4.48111 12.2732 3.73869 12.5238 3.05859C12.5116 2.88559 12.5116 2.71189 12.5238 2.53889C12.8521 0.161889 15.8806 -0.519688 17.6944 0.383401C18.1818 0.654217 18.6097 1.02704 18.9512 1.47832C19.2927 1.92959 19.5403 2.4495 19.6784 3.00519C19.8165 3.56087 19.842 4.14024 19.7534 4.70669C19.6647 5.27313 19.4639 5.81433 19.1635 6.29607Z" fill="#3C3C3B"/>
<path d="M31.475 6.29607C31.1598 6.75706 30.7556 7.14487 30.2881 7.43483C29.8206 7.72478 29.3001 7.91054 28.7597 7.98026C28.2193 8.04998 27.6709 8.00215 27.1492 7.8398C26.6276 7.67745 26.1443 7.40415 25.7299 7.03729C25.2152 6.54263 24.8549 5.89932 24.6955 5.19021C24.536 4.48111 24.5847 3.73869 24.8354 3.05859C24.8231 2.88559 24.8231 2.71189 24.8354 2.53889C25.1637 0.161889 28.1921 -0.519688 30.0059 0.383401C30.4933 0.654217 30.9213 1.02704 31.2628 1.47832C31.6043 1.92959 31.8519 2.4495 31.9899 3.00519C32.128 3.56087 32.1535 4.14024 32.0649 4.70669C31.9763 5.27313 31.7754 5.81433 31.475 6.29607Z" fill="#3C3C3B"/>
<path d="M43.7855 6.29607C43.4703 6.75706 43.0661 7.14487 42.5987 7.43483C42.1312 7.72478 41.6107 7.91054 41.0703 7.98026C40.5299 8.04998 39.9814 8.00215 39.4598 7.8398C38.9382 7.67745 38.4548 7.40415 38.0405 7.03729C37.5257 6.54263 37.1654 5.89932 37.006 5.19021C36.8466 4.48111 36.8953 3.73869 37.1459 3.05859C37.1337 2.88559 37.1337 2.71189 37.1459 2.53889C37.4742 0.161889 40.5027 -0.519688 42.3164 0.383401C42.8038 0.654217 43.2318 1.02704 43.5733 1.47832C43.9148 1.92959 44.1624 2.4495 44.3005 3.00519C44.4386 3.56087 44.4641 4.14024 44.3754 4.70669C44.2868 5.27313 44.0859 5.81433 43.7855 6.29607Z" fill="#3C3C3B"/>
<path d="M56.0963 6.29606C55.781 6.75055 55.3789 7.13266 54.9149 7.41851C54.451 7.70435 53.9352 7.88779 53.3999 7.95735C52.8646 8.02692 52.3212 7.98111 51.8037 7.8228C51.2862 7.66449 50.8057 7.39708 50.3923 7.03728C49.8705 6.54758 49.5024 5.90653 49.3356 5.19716C49.1687 4.48779 49.2109 3.74277 49.4567 3.05858C49.4444 2.88557 49.4444 2.71188 49.4567 2.53888C49.7849 0.161878 52.8134 -0.519697 54.6272 0.383391C55.1146 0.654207 55.5425 1.02703 55.8841 1.47831C56.2256 1.92958 56.4732 2.44949 56.6112 3.00518C56.7493 3.56086 56.7748 4.14023 56.6862 4.70668C56.5975 5.27312 56.3967 5.81432 56.0963 6.29606Z" fill="#3C3C3B"/>
<path d="M68.4068 6.29606C68.0916 6.75055 67.6894 7.13266 67.2255 7.41851C66.7615 7.70435 66.2458 7.88779 65.7105 7.95735C65.1751 8.02692 64.6317 7.98111 64.1142 7.8228C63.5967 7.66449 63.1163 7.39708 62.7028 7.03728C62.1811 6.54758 61.8129 5.90653 61.6461 5.19716C61.4793 4.48779 61.5215 3.74277 61.7672 3.05858C61.755 2.88557 61.755 2.71188 61.7672 2.53888C62.0955 0.161878 65.1239 -0.519697 66.9377 0.383391C67.4251 0.654207 67.8531 1.02703 68.1946 1.47831C68.5361 1.92958 68.7837 2.44949 68.9218 3.00518C69.0598 3.56086 69.0854 4.14023 68.9967 4.70668C68.9081 5.27312 68.7072 5.81432 68.4068 6.29606Z" fill="#3C3C3B"/>
<path d="M80.7179 6.29606C80.4026 6.75055 80.0005 7.13266 79.5365 7.41851C79.0726 7.70435 78.5568 7.88779 78.0215 7.95735C77.4862 8.02692 76.9428 7.98111 76.4253 7.8228C75.9078 7.66449 75.4273 7.39708 75.0139 7.03728C74.4921 6.54758 74.124 5.90653 73.9571 5.19716C73.7903 4.48779 73.8325 3.74277 74.0782 3.05858C74.066 2.88557 74.066 2.71188 74.0782 2.53888C74.4065 0.161878 77.435 -0.519697 79.2488 0.383391C79.7362 0.654207 80.1641 1.02703 80.5056 1.47831C80.8471 1.92958 81.0947 2.44949 81.2328 3.00518C81.3709 3.56086 81.3964 4.14023 81.3078 4.70668C81.2191 5.27312 81.0183 5.81432 80.7179 6.29606Z" fill="#3C3C3B"/>
<path d="M93.0286 6.29606C92.7134 6.75055 92.3112 7.13266 91.8473 7.41851C91.3833 7.70435 90.8676 7.88779 90.3323 7.95735C89.7969 8.02692 89.2535 7.98111 88.736 7.8228C88.2185 7.66449 87.7381 7.39708 87.3246 7.03728C86.7996 6.54625 86.4294 5.90223 86.2625 5.18937C86.0956 4.47652 86.1397 3.72797 86.389 3.04154C86.3768 2.86854 86.3768 2.69484 86.389 2.52184C86.7173 0.144839 89.7457 -0.536737 91.5595 0.366351C92.0492 0.636996 92.4793 1.01051 92.8224 1.46313C93.1655 1.91574 93.414 2.43755 93.5522 2.99532C93.6904 3.55309 93.7152 4.13462 93.625 4.70289C93.5349 5.27117 93.3318 5.81373 93.0286 6.29606Z" fill="#3C3C3B"/>
<path d="M105.339 6.29606C105.024 6.75055 104.622 7.13266 104.158 7.41851C103.694 7.70435 103.178 7.88779 102.643 7.95735C102.107 8.02692 101.564 7.98111 101.047 7.8228C100.529 7.66449 100.049 7.39708 99.6352 7.03728C99.1101 6.54625 98.7399 5.90223 98.573 5.18937C98.4061 4.47652 98.4502 3.72797 98.6995 3.04154C98.6873 2.86854 98.6873 2.69484 98.6995 2.52184C99.0278 0.144839 102.056 -0.536737 103.87 0.366351C104.36 0.636996 104.79 1.01051 105.133 1.46313C105.476 1.91574 105.725 2.43755 105.863 2.99532C106.001 3.55309 106.026 4.13462 105.936 4.70289C105.845 5.27117 105.642 5.81373 105.339 6.29606Z" fill="#3C3C3B"/>
<path d="M117.65 6.29606C117.335 6.75055 116.933 7.13266 116.469 7.41851C116.005 7.70435 115.489 7.88779 114.954 7.95735C114.419 8.02692 113.875 7.98111 113.358 7.8228C112.84 7.66449 112.36 7.39708 111.946 7.03728C111.421 6.54625 111.051 5.90223 110.884 5.18937C110.717 4.47652 110.761 3.72797 111.011 3.04154C110.998 2.86854 110.998 2.69484 111.011 2.52184C111.339 0.144839 114.367 -0.536737 116.181 0.366351C116.671 0.636996 117.101 1.01051 117.444 1.46313C117.787 1.91574 118.036 2.43755 118.174 2.99532C118.312 3.55309 118.337 4.13462 118.247 4.70289C118.156 5.27117 117.953 5.81373 117.65 6.29606Z" fill="#3C3C3B"/>
<path d="M129.961 6.29606C129.645 6.75055 129.243 7.13266 128.779 7.41851C128.315 7.70435 127.8 7.88779 127.264 7.95735C126.729 8.02692 126.186 7.98111 125.668 7.8228C125.151 7.66449 124.67 7.39708 124.257 7.03728C123.732 6.54625 123.362 5.90223 123.195 5.18937C123.028 4.47652 123.072 3.72797 123.321 3.04154C123.309 2.86854 123.309 2.69484 123.321 2.52184C123.649 0.144839 126.678 -0.536737 128.492 0.366351C128.981 0.636996 129.411 1.01051 129.755 1.46313C130.098 1.91574 130.346 2.43755 130.484 2.99532C130.622 3.55309 130.647 4.13462 130.557 4.70289C130.467 5.27117 130.264 5.81373 129.961 6.29606Z" fill="#3C3C3B"/>
<path d="M142.272 6.29606C141.957 6.75055 141.554 7.13266 141.09 7.41851C140.626 7.70435 140.111 7.88779 139.575 7.95735C139.04 8.02692 138.497 7.98111 137.979 7.8228C137.462 7.66449 136.981 7.39708 136.568 7.03728C136.043 6.54625 135.673 5.90223 135.506 5.18937C135.339 4.47652 135.383 3.72797 135.632 3.04154C135.62 2.86854 135.62 2.69484 135.632 2.52184C135.96 0.144839 138.989 -0.536737 140.803 0.366351C141.292 0.636996 141.723 1.01051 142.066 1.46313C142.409 1.91574 142.657 2.43755 142.795 2.99532C142.934 3.55309 142.958 4.13462 142.868 4.70289C142.778 5.27117 142.575 5.81373 142.272 6.29606Z" fill="#3C3C3B"/>
<path d="M154.582 6.29606C154.267 6.75055 153.865 7.13266 153.401 7.41851C152.937 7.70435 152.421 7.88779 151.886 7.95735C151.351 8.02692 150.807 7.98111 150.29 7.8228C149.772 7.66449 149.292 7.39708 148.878 7.03728C148.353 6.54625 147.983 5.90223 147.816 5.18937C147.649 4.47652 147.693 3.72797 147.943 3.04154C147.93 2.86854 147.93 2.69484 147.943 2.52184C148.271 0.144839 151.299 -0.536737 153.113 0.366351C153.603 0.636996 154.033 1.01051 154.376 1.46313C154.719 1.91574 154.968 2.43755 155.106 2.99532C155.244 3.55309 155.269 4.13462 155.179 4.70289C155.089 5.27117 154.885 5.81373 154.582 6.29606Z" fill="#3C3C3B"/>
<path d="M166.893 6.29606C166.578 6.75055 166.176 7.13266 165.712 7.41851C165.248 7.70435 164.732 7.88779 164.197 7.95735C163.662 8.02692 163.118 7.98111 162.601 7.8228C162.083 7.66449 161.603 7.39708 161.189 7.03728C160.664 6.54625 160.294 5.90223 160.127 5.18937C159.96 4.47652 160.004 3.72797 160.254 3.04154C160.242 2.86854 160.242 2.69484 160.254 2.52184C160.582 0.144839 163.61 -0.536737 165.424 0.366351C165.914 0.636996 166.344 1.01051 166.687 1.46313C167.03 1.91574 167.279 2.43755 167.417 2.99532C167.555 3.55309 167.58 4.13462 167.49 4.70289C167.4 5.27117 167.196 5.81373 166.893 6.29606Z" fill="#3C3C3B"/>
<path d="M179.204 6.29606C178.889 6.75055 178.487 7.13266 178.023 7.41851C177.559 7.70435 177.043 7.88779 176.508 7.95735C175.972 8.02692 175.429 7.98111 174.911 7.8228C174.394 7.66449 173.913 7.39708 173.5 7.03728C172.975 6.54625 172.605 5.90223 172.438 5.18937C172.271 4.47652 172.315 3.72797 172.564 3.04154C172.552 2.86854 172.552 2.69484 172.564 2.52184C172.893 0.144839 175.921 -0.536737 177.735 0.366351C178.225 0.636996 178.655 1.01051 178.998 1.46313C179.341 1.91574 179.589 2.43755 179.727 2.99532C179.866 3.55309 179.89 4.13462 179.8 4.70289C179.71 5.27117 179.507 5.81373 179.204 6.29606Z" fill="#3C3C3B"/>
<path d="M191.515 6.29606C191.2 6.75055 190.798 7.13266 190.334 7.41851C189.87 7.70435 189.354 7.88779 188.819 7.95735C188.283 8.02692 187.74 7.98111 187.222 7.8228C186.705 7.66449 186.224 7.39708 185.811 7.03728C185.286 6.54625 184.916 5.90223 184.749 5.18937C184.582 4.47652 184.626 3.72797 184.875 3.04154C184.863 2.86854 184.863 2.69484 184.875 2.52184C185.204 0.144839 188.232 -0.536737 190.046 0.366351C190.536 0.636996 190.966 1.01051 191.309 1.46313C191.652 1.91574 191.9 2.43755 192.039 2.99532C192.177 3.55309 192.202 4.13462 192.111 4.70289C192.021 5.27117 191.818 5.81373 191.515 6.29606Z" fill="#3C3C3B"/>
<path d="M203.825 6.29606C203.51 6.75055 203.108 7.13266 202.644 7.41851C202.18 7.70435 201.664 7.88779 201.129 7.95735C200.594 8.02692 200.05 7.98111 199.533 7.8228C199.015 7.66449 198.535 7.39708 198.121 7.03728C197.596 6.54625 197.226 5.90223 197.059 5.18937C196.892 4.47652 196.937 3.72797 197.186 3.04154C197.174 2.86854 197.174 2.69484 197.186 2.52184C197.514 0.144839 200.543 -0.536737 202.356 0.366351C202.846 0.636996 203.276 1.01051 203.619 1.46313C203.962 1.91574 204.211 2.43755 204.349 2.99532C204.487 3.55309 204.512 4.13462 204.422 4.70289C204.332 5.27117 204.129 5.81373 203.825 6.29606Z" fill="#3C3C3B"/>
<path d="M216.136 6.29607C215.821 6.75706 215.417 7.14487 214.949 7.43483C214.482 7.72478 213.961 7.91054 213.421 7.98026C212.88 8.04998 212.332 8.00215 211.81 7.8398C211.289 7.67745 210.805 7.40415 210.391 7.03729C209.866 6.54626 209.496 5.90224 209.329 5.18938C209.162 4.47653 209.206 3.72798 209.455 3.04155C209.443 2.86855 209.443 2.69485 209.455 2.52185C209.784 0.14485 212.812 -0.536727 214.626 0.366362C215.119 0.633222 215.553 1.00396 215.9 1.45487C216.248 1.90579 216.5 2.42695 216.642 2.98505C216.785 3.54314 216.813 4.12588 216.726 4.69601C216.639 5.26614 216.438 5.81111 216.136 6.29607Z" fill="#3C3C3B"/>
<path d="M228.447 6.29607C228.132 6.75706 227.728 7.14487 227.26 7.43483C226.793 7.72478 226.272 7.91054 225.732 7.98026C225.191 8.04998 224.643 8.00215 224.121 7.8398C223.6 7.67745 223.116 7.40415 222.702 7.03729C222.177 6.54626 221.807 5.90224 221.64 5.18938C221.473 4.47653 221.517 3.72798 221.766 3.04155C221.754 2.86855 221.754 2.69485 221.766 2.52185C222.095 0.14485 225.123 -0.536727 226.937 0.366362C227.43 0.633222 227.864 1.00396 228.211 1.45487C228.559 1.90579 228.811 2.42695 228.953 2.98505C229.096 3.54314 229.124 4.12588 229.037 4.69601C228.95 5.26614 228.749 5.81111 228.447 6.29607Z" fill="#3C3C3B"/>
<path d="M240.758 6.29607C240.442 6.75706 240.038 7.14487 239.571 7.43483C239.103 7.72478 238.583 7.91054 238.042 7.98026C237.502 8.04998 236.954 8.00215 236.432 7.8398C235.91 7.67745 235.427 7.40415 235.013 7.03729C234.488 6.54626 234.117 5.90224 233.95 5.18938C233.784 4.47653 233.828 3.72798 234.077 3.04155C234.065 2.86855 234.065 2.69485 234.077 2.52185C234.405 0.14485 237.434 -0.536727 239.248 0.366362C239.741 0.633222 240.175 1.00396 240.522 1.45487C240.869 1.90579 241.122 2.42695 241.264 2.98505C241.406 3.54314 241.434 4.12588 241.347 4.69601C241.26 5.26614 241.059 5.81111 240.758 6.29607Z" fill="#3C3C3B"/>
<path d="M253.069 6.29607C252.753 6.75706 252.349 7.14487 251.882 7.43483C251.414 7.72478 250.894 7.91054 250.353 7.98026C249.813 8.04998 249.265 8.00215 248.743 7.8398C248.221 7.67745 247.738 7.40415 247.324 7.03729C246.799 6.54626 246.428 5.90224 246.262 5.18938C246.095 4.47653 246.139 3.72798 246.388 3.04155C246.376 2.86855 246.376 2.69485 246.388 2.52185C246.716 0.14485 249.745 -0.536727 251.559 0.366362C252.052 0.633222 252.486 1.00396 252.833 1.45487C253.18 1.90579 253.433 2.42695 253.575 2.98505C253.717 3.54314 253.745 4.12588 253.658 4.69601C253.571 5.26614 253.37 5.81111 253.069 6.29607Z" fill="#3C3C3B"/>
<path d="M265.379 6.29607C265.064 6.75706 264.66 7.14487 264.192 7.43483C263.725 7.72478 263.204 7.91054 262.664 7.98026C262.124 8.04998 261.575 8.00215 261.053 7.8398C260.532 7.67745 260.048 7.40415 259.634 7.03729C259.109 6.54626 258.739 5.90224 258.572 5.18938C258.405 4.47653 258.449 3.72798 258.699 3.04155C258.686 2.86855 258.686 2.69485 258.699 2.52185C259.027 0.14485 262.055 -0.536727 263.869 0.366362C264.362 0.633222 264.796 1.00396 265.143 1.45487C265.491 1.90579 265.743 2.42695 265.886 2.98505C266.028 3.54314 266.056 4.12588 265.969 4.69601C265.882 5.26614 265.681 5.81111 265.379 6.29607Z" fill="#3C3C3B"/>
<path d="M277.69 6.29607C277.375 6.75706 276.971 7.14487 276.503 7.43483C276.036 7.72478 275.515 7.91054 274.975 7.98026C274.435 8.04998 273.886 8.00215 273.365 7.8398C272.843 7.67745 272.36 7.40415 271.945 7.03729C271.42 6.54626 271.05 5.90224 270.883 5.18938C270.716 4.47653 270.76 3.72798 271.01 3.04155C270.997 2.86855 270.997 2.69485 271.01 2.52185C271.338 0.14485 274.366 -0.536727 276.18 0.366362C276.673 0.633222 277.107 1.00396 277.455 1.45487C277.802 1.90579 278.054 2.42695 278.197 2.98505C278.339 3.54314 278.367 4.12588 278.28 4.69601C278.193 5.26614 277.992 5.81111 277.69 6.29607Z" fill="#3C3C3B"/>
<path d="M290.001 6.29607C289.686 6.75706 289.281 7.14487 288.814 7.43483C288.346 7.72478 287.826 7.91054 287.286 7.98026C286.745 8.04998 286.197 8.00215 285.675 7.8398C285.153 7.67745 284.67 7.40415 284.256 7.03729C283.731 6.54626 283.361 5.90224 283.194 5.18938C283.027 4.47653 283.071 3.72798 283.32 3.04155C283.308 2.86855 283.308 2.69485 283.32 2.52185C283.648 0.14485 286.677 -0.536727 288.491 0.366362C288.984 0.633222 289.418 1.00396 289.765 1.45487C290.112 1.90579 290.365 2.42695 290.507 2.98505C290.649 3.54314 290.678 4.12588 290.59 4.69601C290.503 5.26614 290.302 5.81111 290.001 6.29607Z" fill="#3C3C3B"/>
<path d="M302.312 6.29607C301.997 6.75706 301.592 7.14487 301.125 7.43483C300.657 7.72478 300.137 7.91054 299.597 7.98026C299.056 8.04998 298.508 8.00215 297.986 7.8398C297.464 7.67745 296.981 7.40415 296.567 7.03729C296.042 6.54626 295.672 5.90224 295.505 5.18938C295.338 4.47653 295.382 3.72798 295.631 3.04155C295.619 2.86855 295.619 2.69485 295.631 2.52185C295.959 0.14485 298.988 -0.536727 300.802 0.366362C301.295 0.633222 301.729 1.00396 302.076 1.45487C302.423 1.90579 302.676 2.42695 302.818 2.98505C302.96 3.54314 302.989 4.12588 302.901 4.69601C302.814 5.26614 302.613 5.81111 302.312 6.29607Z" fill="#3C3C3B"/>
<path d="M314.622 6.29607C314.307 6.75706 313.903 7.14487 313.436 7.43483C312.968 7.72478 312.448 7.91054 311.907 7.98026C311.367 8.04998 310.818 8.00215 310.297 7.8398C309.775 7.67745 309.292 7.40415 308.877 7.03729C308.352 6.54626 307.982 5.90224 307.815 5.18938C307.648 4.47653 307.692 3.72798 307.942 3.04155C307.93 2.86855 307.93 2.69485 307.942 2.52185C308.27 0.14485 311.298 -0.536727 313.112 0.366362C313.605 0.633222 314.039 1.00396 314.387 1.45487C314.734 1.90579 314.987 2.42695 315.129 2.98505C315.271 3.54314 315.299 4.12588 315.212 4.69601C315.125 5.26614 314.924 5.81111 314.622 6.29607Z" fill="#3C3C3B"/>
<path d="M326.933 6.29607C326.618 6.75706 326.214 7.14487 325.747 7.43483C325.279 7.72478 324.759 7.91054 324.218 7.98026C323.678 8.04998 323.129 8.00215 322.608 7.8398C322.086 7.67745 321.603 7.40415 321.188 7.03729C320.663 6.54626 320.293 5.90224 320.126 5.18938C319.959 4.47653 320.003 3.72798 320.253 3.04155C320.241 2.86855 320.241 2.69485 320.253 2.52185C320.581 0.14485 323.609 -0.536727 325.423 0.366362C325.916 0.633222 326.35 1.00396 326.698 1.45487C327.045 1.90579 327.298 2.42695 327.44 2.98505C327.582 3.54314 327.61 4.12588 327.523 4.69601C327.436 5.26614 327.235 5.81111 326.933 6.29607Z" fill="#3C3C3B"/>
<path d="M339.244 6.29607C338.929 6.75706 338.525 7.14487 338.057 7.43483C337.59 7.72478 337.069 7.91054 336.529 7.98026C335.988 8.04998 335.44 8.00215 334.918 7.8398C334.397 7.67745 333.913 7.40415 333.499 7.03729C332.974 6.54626 332.604 5.90224 332.437 5.18938C332.27 4.47653 332.314 3.72798 332.563 3.04155C332.551 2.86855 332.551 2.69485 332.563 2.52185C332.892 0.14485 335.92 -0.536727 337.734 0.366362C338.227 0.633222 338.661 1.00396 339.008 1.45487C339.355 1.90579 339.608 2.42695 339.75 2.98505C339.892 3.54314 339.921 4.12588 339.834 4.69601C339.746 5.26614 339.546 5.81111 339.244 6.29607Z" fill="#3C3C3B"/>
<path d="M351.555 6.29607C351.24 6.75706 350.836 7.14487 350.368 7.43483C349.901 7.72478 349.38 7.91054 348.84 7.98026C348.299 8.04998 347.751 8.00215 347.229 7.8398C346.708 7.67745 346.224 7.40415 345.81 7.03729C345.285 6.54626 344.915 5.90224 344.748 5.18938C344.581 4.47653 344.625 3.72798 344.874 3.04155C344.862 2.86855 344.862 2.69485 344.874 2.52185C345.203 0.14485 348.231 -0.536727 350.045 0.366362C350.538 0.633222 350.972 1.00396 351.319 1.45487C351.666 1.90579 351.919 2.42695 352.061 2.98505C352.203 3.54314 352.232 4.12588 352.145 4.69601C352.057 5.26614 351.857 5.81111 351.555 6.29607Z" fill="#3C3C3B"/>
<path d="M363.866 6.29607C363.55 6.75706 363.146 7.14487 362.679 7.43483C362.211 7.72478 361.691 7.91054 361.15 7.98026C360.61 8.04998 360.061 8.00215 359.54 7.8398C359.018 7.67745 358.535 7.40415 358.121 7.03729C357.595 6.54626 357.225 5.90224 357.058 5.18938C356.891 4.47653 356.936 3.72798 357.185 3.04155C357.173 2.86855 357.173 2.69485 357.185 2.52185C357.513 0.14485 360.542 -0.536727 362.355 0.366362C362.849 0.633222 363.283 1.00396 363.63 1.45487C363.977 1.90579 364.23 2.42695 364.372 2.98505C364.514 3.54314 364.542 4.12588 364.455 4.69601C364.368 5.26614 364.167 5.81111 363.866 6.29607Z" fill="#3C3C3B"/>
<path d="M376.176 6.29607C375.861 6.75706 375.457 7.14487 374.989 7.43483C374.522 7.72478 374.001 7.91054 373.461 7.98026C372.92 8.04998 372.372 8.00215 371.85 7.8398C371.329 7.67745 370.845 7.40415 370.431 7.03729C369.906 6.54626 369.536 5.90224 369.369 5.18938C369.202 4.47653 369.246 3.72798 369.495 3.04155C369.483 2.86855 369.483 2.69485 369.495 2.52185C369.824 0.14485 372.852 -0.536727 374.666 0.366362C375.159 0.633222 375.593 1.00396 375.94 1.45487C376.288 1.90579 376.54 2.42695 376.682 2.98505C376.825 3.54314 376.853 4.12588 376.766 4.69601C376.679 5.26614 376.478 5.81111 376.176 6.29607Z" fill="#3C3C3B"/>
<path d="M388.487 6.29607C388.172 6.75706 387.768 7.14487 387.3 7.43483C386.833 7.72478 386.312 7.91054 385.772 7.98026C385.231 8.04998 384.683 8.00215 384.161 7.8398C383.64 7.67745 383.156 7.40415 382.742 7.03729C382.217 6.54626 381.847 5.90224 381.68 5.18938C381.513 4.47653 381.557 3.72798 381.806 3.04155C381.794 2.86855 381.794 2.69485 381.806 2.52185C382.135 0.14485 385.163 -0.536727 386.977 0.366362C387.47 0.633222 387.904 1.00396 388.251 1.45487C388.599 1.90579 388.851 2.42695 388.993 2.98505C389.136 3.54314 389.164 4.12588 389.077 4.69601C388.99 5.26614 388.789 5.81111 388.487 6.29607Z" fill="#3C3C3B"/>
<path d="M400.798 6.29607C400.482 6.75706 400.078 7.14487 399.611 7.43483C399.143 7.72478 398.623 7.91054 398.082 7.98026C397.542 8.04998 396.994 8.00215 396.472 7.8398C395.95 7.67745 395.467 7.40415 395.053 7.03729C394.528 6.54626 394.157 5.90224 393.991 5.18938C393.824 4.47653 393.868 3.72798 394.117 3.04155C394.105 2.86855 394.105 2.69485 394.117 2.52185C394.445 0.14485 397.474 -0.536727 399.288 0.366362C399.781 0.633222 400.215 1.00396 400.562 1.45487C400.909 1.90579 401.162 2.42695 401.304 2.98505C401.446 3.54314 401.474 4.12588 401.387 4.69601C401.3 5.26614 401.099 5.81111 400.798 6.29607Z" fill="#3C3C3B"/>
<path d="M413.109 6.29607C412.794 6.75706 412.389 7.14487 411.922 7.43483C411.454 7.72478 410.934 7.91054 410.393 7.98026C409.853 8.04998 409.305 8.00215 408.783 7.8398C408.261 7.67745 407.778 7.40415 407.364 7.03729C406.839 6.54626 406.468 5.90224 406.302 5.18938C406.135 4.47653 406.179 3.72798 406.428 3.04155C406.416 2.86855 406.416 2.69485 406.428 2.52185C406.756 0.14485 409.785 -0.536727 411.599 0.366362C412.092 0.633222 412.526 1.00396 412.873 1.45487C413.22 1.90579 413.473 2.42695 413.615 2.98505C413.757 3.54314 413.786 4.12588 413.698 4.69601C413.611 5.26614 413.41 5.81111 413.109 6.29607Z" fill="#3C3C3B"/>
<path d="M425.419 6.29607C425.104 6.75706 424.7 7.14487 424.232 7.43483C423.765 7.72478 423.244 7.91054 422.704 7.98026C422.164 8.04998 421.615 8.00215 421.094 7.8398C420.572 7.67745 420.089 7.40415 419.674 7.03729C419.149 6.54626 418.779 5.90224 418.612 5.18938C418.445 4.47653 418.489 3.72798 418.739 3.04155C418.726 2.86855 418.726 2.69485 418.739 2.52185C419.067 0.14485 422.095 -0.536727 423.909 0.366362C424.402 0.633222 424.836 1.00396 425.183 1.45487C425.531 1.90579 425.783 2.42695 425.926 2.98505C426.068 3.54314 426.096 4.12588 426.009 4.69601C425.922 5.26614 425.721 5.81111 425.419 6.29607Z" fill="#3C3C3B"/>
<path d="M437.73 6.29607C437.415 6.75706 437.011 7.14487 436.543 7.43483C436.076 7.72478 435.555 7.91054 435.015 7.98026C434.475 8.04998 433.926 8.00215 433.405 7.8398C432.883 7.67745 432.4 7.40415 431.985 7.03729C431.46 6.54626 431.09 5.90224 430.923 5.18938C430.756 4.47653 430.8 3.72798 431.05 3.04155C431.037 2.86855 431.037 2.69485 431.05 2.52185C431.378 0.14485 434.406 -0.536727 436.22 0.366362C436.713 0.633222 437.147 1.00396 437.494 1.45487C437.842 1.90579 438.094 2.42695 438.237 2.98505C438.379 3.54314 438.407 4.12588 438.32 4.69601C438.233 5.26614 438.032 5.81111 437.73 6.29607Z" fill="#3C3C3B"/>
<path d="M450.041 6.29607C449.726 6.75706 449.321 7.14487 448.854 7.43483C448.386 7.72478 447.866 7.91054 447.326 7.98026C446.785 8.04998 446.237 8.00215 445.715 7.8398C445.193 7.67745 444.71 7.40415 444.296 7.03729C443.771 6.54626 443.401 5.90224 443.234 5.18938C443.067 4.47653 443.111 3.72798 443.36 3.04155C443.348 2.86855 443.348 2.69485 443.36 2.52185C443.688 0.14485 446.717 -0.536727 448.531 0.366362C449.024 0.633222 449.458 1.00396 449.805 1.45487C450.152 1.90579 450.405 2.42695 450.547 2.98505C450.689 3.54314 450.718 4.12588 450.63 4.69601C450.543 5.26614 450.342 5.81111 450.041 6.29607Z" fill="#3C3C3B"/>
<path d="M462.352 6.29607C462.037 6.75706 461.632 7.14487 461.165 7.43483C460.698 7.72478 460.177 7.91054 459.637 7.98026C459.096 8.04998 458.548 8.00215 458.026 7.8398C457.505 7.67745 457.021 7.40415 456.607 7.03729C456.082 6.54626 455.712 5.90224 455.545 5.18938C455.378 4.47653 455.422 3.72798 455.671 3.04155C455.659 2.86855 455.659 2.69485 455.671 2.52185C456 0.14485 459.028 -0.536727 460.842 0.366362C461.335 0.633222 461.769 1.00396 462.116 1.45487C462.463 1.90579 462.716 2.42695 462.858 2.98505C463 3.54314 463.029 4.12588 462.942 4.69601C462.854 5.26614 462.653 5.81111 462.352 6.29607Z" fill="#3C3C3B"/>
</svg>
