<svg width="1064" height="279" viewBox="0 0 1064 279" fill="none" xmlns="http://www.w3.org/2000/svg">
<path d="M57.6134 46.288C56.2854 46.288 54.9974 46.112 53.7494 45.76C52.5174 45.392 51.5254 44.92 50.7734 44.344L52.0934 41.416C52.8134 41.944 53.6694 42.368 54.6614 42.688C55.6534 43.008 56.6454 43.168 57.6374 43.168C58.7414 43.168 59.5574 43.008 60.0854 42.688C60.6134 42.352 60.8774 41.912 60.8774 41.368C60.8774 40.968 60.7174 40.64 60.3974 40.384C60.0934 40.112 59.6934 39.896 59.1974 39.736C58.7174 39.576 58.0614 39.4 57.2294 39.208C55.9494 38.904 54.9014 38.6 54.0854 38.296C53.2694 37.992 52.5654 37.504 51.9734 36.832C51.3974 36.16 51.1094 35.264 51.1094 34.144C51.1094 33.168 51.3734 32.288 51.9014 31.504C52.4294 30.704 53.2214 30.072 54.2774 29.608C55.3494 29.144 56.6534 28.912 58.1894 28.912C59.2614 28.912 60.3094 29.04 61.3334 29.296C62.3574 29.552 63.2534 29.92 64.0214 30.4L62.8214 33.352C61.2694 32.472 59.7174 32.032 58.1654 32.032C57.0774 32.032 56.2694 32.208 55.7414 32.56C55.2294 32.912 54.9734 33.376 54.9734 33.952C54.9734 34.528 55.2694 34.96 55.8614 35.248C56.4694 35.52 57.3894 35.792 58.6214 36.064C59.9014 36.368 60.9494 36.672 61.7654 36.976C62.5814 37.28 63.2774 37.76 63.8534 38.416C64.4454 39.072 64.7414 39.96 64.7414 41.08C64.7414 42.04 64.4694 42.92 63.9254 43.72C63.3974 44.504 62.5974 45.128 61.5254 45.592C60.4534 46.056 59.1494 46.288 57.6134 46.288ZM78.9957 33.088L73.1637 46.792C72.5717 48.28 71.8357 49.328 70.9557 49.936C70.0917 50.544 69.0437 50.848 67.8117 50.848C67.1397 50.848 66.4757 50.744 65.8197 50.536C65.1637 50.328 64.6277 50.04 64.2117 49.672L65.5797 47.008C65.8677 47.264 66.1957 47.464 66.5637 47.608C66.9477 47.752 67.3237 47.824 67.6917 47.824C68.2037 47.824 68.6197 47.696 68.9397 47.44C69.2597 47.2 69.5477 46.792 69.8037 46.216L69.8517 46.096L64.2597 33.088H68.1237L71.7477 41.848L75.3957 33.088H78.9957ZM83.96 46.192C82.888 46.192 81.84 46.064 80.816 45.808C79.792 45.536 78.976 45.2 78.368 44.8L79.616 42.112C80.192 42.48 80.888 42.784 81.704 43.024C82.52 43.248 83.32 43.36 84.104 43.36C85.688 43.36 86.48 42.968 86.48 42.184C86.48 41.816 86.264 41.552 85.832 41.392C85.4 41.232 84.736 41.096 83.84 40.984C82.784 40.824 81.912 40.64 81.224 40.432C80.536 40.224 79.936 39.856 79.424 39.328C78.928 38.8 78.68 38.048 78.68 37.072C78.68 36.256 78.912 35.536 79.376 34.912C79.856 34.272 80.544 33.776 81.44 33.424C82.352 33.072 83.424 32.896 84.656 32.896C85.568 32.896 86.472 33 87.368 33.208C88.28 33.4 89.032 33.672 89.624 34.024L88.376 36.688C87.24 36.048 86 35.728 84.656 35.728C83.856 35.728 83.256 35.84 82.856 36.064C82.456 36.288 82.256 36.576 82.256 36.928C82.256 37.328 82.472 37.608 82.904 37.768C83.336 37.928 84.024 38.08 84.968 38.224C86.024 38.4 86.888 38.592 87.56 38.8C88.232 38.992 88.816 39.352 89.312 39.88C89.808 40.408 90.056 41.144 90.056 42.088C90.056 42.888 89.816 43.6 89.336 44.224C88.856 44.848 88.152 45.336 87.224 45.688C86.312 46.024 85.224 46.192 83.96 46.192ZM99.974 45.376C99.606 45.648 99.15 45.856 98.606 46C98.078 46.128 97.518 46.192 96.926 46.192C95.39 46.192 94.198 45.8 93.35 45.016C92.518 44.232 92.102 43.08 92.102 41.56V36.256H90.11V33.376H92.102V30.232H95.846V33.376H99.062V36.256H95.846V41.512C95.846 42.056 95.982 42.48 96.254 42.784C96.542 43.072 96.942 43.216 97.454 43.216C98.046 43.216 98.55 43.056 98.966 42.736L99.974 45.376ZM113.605 39.592C113.605 39.64 113.581 39.976 113.533 40.6H103.765C103.941 41.4 104.357 42.032 105.013 42.496C105.669 42.96 106.485 43.192 107.461 43.192C108.133 43.192 108.725 43.096 109.237 42.904C109.765 42.696 110.253 42.376 110.701 41.944L112.693 44.104C111.477 45.496 109.701 46.192 107.365 46.192C105.909 46.192 104.621 45.912 103.501 45.352C102.381 44.776 101.517 43.984 100.909 42.976C100.301 41.968 99.9972 40.824 99.9972 39.544C99.9972 38.28 100.293 37.144 100.885 36.136C101.493 35.112 102.317 34.32 103.357 33.76C104.413 33.184 105.589 32.896 106.885 32.896C108.149 32.896 109.293 33.168 110.317 33.712C111.341 34.256 112.141 35.04 112.717 36.064C113.309 37.072 113.605 38.248 113.605 39.592ZM106.909 35.728C106.061 35.728 105.349 35.968 104.773 36.448C104.197 36.928 103.845 37.584 103.717 38.416H110.077C109.949 37.6 109.597 36.952 109.021 36.472C108.445 35.976 107.741 35.728 106.909 35.728ZM131.914 32.896C133.53 32.896 134.81 33.376 135.754 34.336C136.714 35.28 137.194 36.704 137.194 38.608V46H133.45V39.184C133.45 38.16 133.234 37.4 132.802 36.904C132.386 36.392 131.786 36.136 131.002 36.136C130.122 36.136 129.426 36.424 128.914 37C128.402 37.56 128.146 38.4 128.146 39.52V46H124.402V39.184C124.402 37.152 123.586 36.136 121.954 36.136C121.09 36.136 120.402 36.424 119.89 37C119.378 37.56 119.122 38.4 119.122 39.52V46H115.378V33.088H118.954V34.576C119.434 34.032 120.018 33.616 120.706 33.328C121.41 33.04 122.178 32.896 123.01 32.896C123.922 32.896 124.746 33.08 125.482 33.448C126.218 33.8 126.81 34.32 127.258 35.008C127.786 34.336 128.45 33.816 129.25 33.448C130.066 33.08 130.954 32.896 131.914 32.896ZM2.05481 58.2H5.94281V75H2.05481V58.2ZM25.4818 61.896C27.0978 61.896 28.3778 62.376 29.3218 63.336C30.2818 64.28 30.7618 65.704 30.7618 67.608V75H27.0178V68.184C27.0178 67.16 26.8018 66.4 26.3698 65.904C25.9538 65.392 25.3538 65.136 24.5698 65.136C23.6898 65.136 22.9938 65.424 22.4818 66C21.9698 66.56 21.7138 67.4 21.7138 68.52V75H17.9698V68.184C17.9698 66.152 17.1538 65.136 15.5218 65.136C14.6578 65.136 13.9698 65.424 13.4578 66C12.9458 66.56 12.6898 67.4 12.6898 68.52V75H8.94581V62.088H12.5218V63.576C13.0018 63.032 13.5858 62.616 14.2738 62.328C14.9778 62.04 15.7458 61.896 16.5778 61.896C17.4898 61.896 18.3138 62.08 19.0498 62.448C19.7858 62.8 20.3778 63.32 20.8258 64.008C21.3538 63.336 22.0178 62.816 22.8178 62.448C23.6338 62.08 24.5218 61.896 25.4818 61.896ZM41.0297 61.896C42.2297 61.896 43.3177 62.176 44.2937 62.736C45.2857 63.28 46.0617 64.056 46.6217 65.064C47.1817 66.056 47.4617 67.216 47.4617 68.544C47.4617 69.872 47.1817 71.04 46.6217 72.048C46.0617 73.04 45.2857 73.816 44.2937 74.376C43.3177 74.92 42.2297 75.192 41.0297 75.192C39.3817 75.192 38.0857 74.672 37.1417 73.632V79.656H33.3977V62.088H36.9737V63.576C37.9017 62.456 39.2537 61.896 41.0297 61.896ZM40.3817 72.12C41.3417 72.12 42.1257 71.8 42.7337 71.16C43.3577 70.504 43.6697 69.632 43.6697 68.544C43.6697 67.456 43.3577 66.592 42.7337 65.952C42.1257 65.296 41.3417 64.968 40.3817 64.968C39.4217 64.968 38.6297 65.296 38.0057 65.952C37.3977 66.592 37.0937 67.456 37.0937 68.544C37.0937 69.632 37.3977 70.504 38.0057 71.16C38.6297 71.8 39.4217 72.12 40.3817 72.12ZM49.248 57.192H52.992V75H49.248V57.192ZM68.3948 68.592C68.3948 68.64 68.3707 68.976 68.3227 69.6H58.5547C58.7307 70.4 59.1467 71.032 59.8027 71.496C60.4587 71.96 61.2747 72.192 62.2507 72.192C62.9227 72.192 63.5147 72.096 64.0267 71.904C64.5547 71.696 65.0427 71.376 65.4907 70.944L67.4828 73.104C66.2667 74.496 64.4907 75.192 62.1547 75.192C60.6987 75.192 59.4107 74.912 58.2907 74.352C57.1707 73.776 56.3067 72.984 55.6987 71.976C55.0907 70.968 54.7867 69.824 54.7867 68.544C54.7867 67.28 55.0827 66.144 55.6747 65.136C56.2827 64.112 57.1067 63.32 58.1467 62.76C59.2027 62.184 60.3787 61.896 61.6747 61.896C62.9387 61.896 64.0827 62.168 65.1067 62.712C66.1307 63.256 66.9307 64.04 67.5068 65.064C68.0988 66.072 68.3948 67.248 68.3948 68.592ZM61.6987 64.728C60.8507 64.728 60.1387 64.968 59.5627 65.448C58.9867 65.928 58.6347 66.584 58.5067 67.416H64.8667C64.7387 66.6 64.3867 65.952 63.8107 65.472C63.2347 64.976 62.5307 64.728 61.6987 64.728ZM86.7034 61.896C88.3194 61.896 89.5994 62.376 90.5434 63.336C91.5034 64.28 91.9834 65.704 91.9834 67.608V75H88.2394V68.184C88.2394 67.16 88.0234 66.4 87.5914 65.904C87.1754 65.392 86.5754 65.136 85.7914 65.136C84.9114 65.136 84.2154 65.424 83.7034 66C83.1914 66.56 82.9354 67.4 82.9354 68.52V75H79.1914V68.184C79.1914 66.152 78.3754 65.136 76.7434 65.136C75.8794 65.136 75.1914 65.424 74.6794 66C74.1674 66.56 73.9114 67.4 73.9114 68.52V75H70.1674V62.088H73.7434V63.576C74.2234 63.032 74.8074 62.616 75.4954 62.328C76.1994 62.04 76.9674 61.896 77.7994 61.896C78.7114 61.896 79.5354 62.08 80.2714 62.448C81.0074 62.8 81.5994 63.32 82.0474 64.008C82.5754 63.336 83.2394 62.816 84.0394 62.448C84.8554 62.08 85.7434 61.896 86.7034 61.896ZM107.408 68.592C107.408 68.64 107.384 68.976 107.336 69.6H97.5679C97.7439 70.4 98.1599 71.032 98.8159 71.496C99.4719 71.96 100.288 72.192 101.264 72.192C101.936 72.192 102.528 72.096 103.04 71.904C103.568 71.696 104.056 71.376 104.504 70.944L106.496 73.104C105.28 74.496 103.504 75.192 101.168 75.192C99.7119 75.192 98.4239 74.912 97.3039 74.352C96.1839 73.776 95.3199 72.984 94.7119 71.976C94.1039 70.968 93.7999 69.824 93.7999 68.544C93.7999 67.28 94.0959 66.144 94.6879 65.136C95.2959 64.112 96.1199 63.32 97.1599 62.76C98.2159 62.184 99.3919 61.896 100.688 61.896C101.952 61.896 103.096 62.168 104.12 62.712C105.144 63.256 105.944 64.04 106.52 65.064C107.112 66.072 107.408 67.248 107.408 68.592ZM100.712 64.728C99.8639 64.728 99.1519 64.968 98.5759 65.448C97.9999 65.928 97.6479 66.584 97.5199 67.416H103.88C103.752 66.6 103.4 65.952 102.824 65.472C102.248 64.976 101.544 64.728 100.712 64.728ZM117.028 61.896C118.628 61.896 119.916 62.376 120.892 63.336C121.885 64.296 122.381 65.72 122.381 67.608V75H118.636V68.184C118.636 67.16 118.412 66.4 117.964 65.904C117.516 65.392 116.868 65.136 116.02 65.136C115.076 65.136 114.324 65.432 113.764 66.024C113.204 66.6 112.924 67.464 112.924 68.616V75H109.18V62.088H112.756V63.6C113.252 63.056 113.868 62.64 114.604 62.352C115.34 62.048 116.148 61.896 117.028 61.896ZM133.382 74.376C133.014 74.648 132.558 74.856 132.014 75C131.486 75.128 130.926 75.192 130.334 75.192C128.798 75.192 127.606 74.8 126.758 74.016C125.926 73.232 125.51 72.08 125.51 70.56V65.256H123.518V62.376H125.51V59.232H129.254V62.376H132.47V65.256H129.254V70.512C129.254 71.056 129.39 71.48 129.662 71.784C129.95 72.072 130.35 72.216 130.862 72.216C131.454 72.216 131.958 72.056 132.374 71.736L133.382 74.376ZM139.972 61.896C141.972 61.896 143.508 62.376 144.58 63.336C145.652 64.28 146.188 65.712 146.188 67.632V75H142.684V73.392C141.98 74.592 140.668 75.192 138.748 75.192C137.756 75.192 136.892 75.024 136.156 74.688C135.436 74.352 134.884 73.888 134.5 73.296C134.116 72.704 133.924 72.032 133.924 71.28C133.924 70.08 134.372 69.136 135.268 68.448C136.18 67.76 137.58 67.416 139.468 67.416H142.444C142.444 66.6 142.196 65.976 141.7 65.544C141.204 65.096 140.46 64.872 139.468 64.872C138.78 64.872 138.1 64.984 137.428 65.208C136.772 65.416 136.212 65.704 135.748 66.072L134.404 63.456C135.108 62.96 135.948 62.576 136.924 62.304C137.916 62.032 138.932 61.896 139.972 61.896ZM139.684 72.672C140.324 72.672 140.892 72.528 141.388 72.24C141.884 71.936 142.236 71.496 142.444 70.92V69.6H139.876C138.34 69.6 137.572 70.104 137.572 71.112C137.572 71.592 137.756 71.976 138.124 72.264C138.508 72.536 139.028 72.672 139.684 72.672ZM157.184 74.376C156.816 74.648 156.36 74.856 155.816 75C155.288 75.128 154.728 75.192 154.136 75.192C152.6 75.192 151.408 74.8 150.56 74.016C149.728 73.232 149.312 72.08 149.312 70.56V65.256H147.32V62.376H149.312V59.232H153.056V62.376H156.272V65.256H153.056V70.512C153.056 71.056 153.192 71.48 153.464 71.784C153.752 72.072 154.152 72.216 154.664 72.216C155.256 72.216 155.76 72.056 156.176 71.736L157.184 74.376ZM158.566 62.088H162.31V75H158.566V62.088ZM160.438 60.288C159.75 60.288 159.19 60.088 158.758 59.688C158.326 59.288 158.11 58.792 158.11 58.2C158.11 57.608 158.326 57.112 158.758 56.712C159.19 56.312 159.75 56.112 160.438 56.112C161.126 56.112 161.686 56.304 162.118 56.688C162.55 57.072 162.766 57.552 162.766 58.128C162.766 58.752 162.55 59.272 162.118 59.688C161.686 60.088 161.126 60.288 160.438 60.288ZM171.209 75.192C169.849 75.192 168.625 74.912 167.537 74.352C166.465 73.776 165.625 72.984 165.017 71.976C164.409 70.968 164.105 69.824 164.105 68.544C164.105 67.264 164.409 66.12 165.017 65.112C165.625 64.104 166.465 63.32 167.537 62.76C168.625 62.184 169.849 61.896 171.209 61.896C172.569 61.896 173.785 62.184 174.857 62.76C175.929 63.32 176.769 64.104 177.377 65.112C177.985 66.12 178.289 67.264 178.289 68.544C178.289 69.824 177.985 70.968 177.377 71.976C176.769 72.984 175.929 73.776 174.857 74.352C173.785 74.912 172.569 75.192 171.209 75.192ZM171.209 72.12C172.169 72.12 172.953 71.8 173.561 71.16C174.185 70.504 174.497 69.632 174.497 68.544C174.497 67.456 174.185 66.592 173.561 65.952C172.953 65.296 172.169 64.968 171.209 64.968C170.249 64.968 169.457 65.296 168.833 65.952C168.209 66.592 167.897 67.456 167.897 68.544C167.897 69.632 168.209 70.504 168.833 71.16C169.457 71.8 170.249 72.12 171.209 72.12ZM187.919 61.896C189.519 61.896 190.807 62.376 191.783 63.336C192.775 64.296 193.271 65.72 193.271 67.608V75H189.527V68.184C189.527 67.16 189.303 66.4 188.855 65.904C188.407 65.392 187.759 65.136 186.911 65.136C185.967 65.136 185.215 65.432 184.655 66.024C184.095 66.6 183.815 67.464 183.815 68.616V75H180.071V62.088H183.647V63.6C184.143 63.056 184.759 62.64 185.495 62.352C186.231 62.048 187.039 61.896 187.919 61.896Z" fill="#FF7E00"/>
<path d="M940.71 19.256C939.726 19.784 938.742 19.976 937.686 19.976C934.47 19.976 932.238 17.744 932.238 14.6C932.238 11.408 934.47 9.224 937.734 9.224C939.438 9.224 940.854 9.824 942.078 11.12L944.574 8.816C942.942 6.92 940.494 5.912 937.542 5.912C932.19 5.912 928.302 9.536 928.302 14.6C928.302 19.664 932.19 23.288 937.47 23.288C939.87 23.288 942.414 22.544 944.262 21.152V14.336H940.71V19.256ZM950.466 11.792V10.088H946.89V23H950.634V16.904C950.634 14.432 952.002 13.304 954.066 13.304C954.354 13.304 954.594 13.328 954.906 13.352V9.896C952.914 9.896 951.378 10.544 950.466 11.792ZM962.439 23.192C966.543 23.192 969.519 20.432 969.519 16.544C969.519 12.656 966.543 9.896 962.439 9.896C958.335 9.896 955.335 12.656 955.335 16.544C955.335 20.432 958.335 23.192 962.439 23.192ZM962.439 20.12C960.567 20.12 959.127 18.776 959.127 16.544C959.127 14.312 960.567 12.968 962.439 12.968C964.311 12.968 965.727 14.312 965.727 16.544C965.727 18.776 964.311 20.12 962.439 20.12ZM988.374 10.088L985.23 18.824L982.158 10.088H978.99L975.822 18.824L972.774 10.088H969.246L973.902 23H977.502L980.502 14.984L983.406 23H987.006L991.686 10.088H988.374ZM1000.38 19.736C999.97 20.048 999.418 20.216 998.866 20.216C997.858 20.216 997.258 19.616 997.258 18.512V13.256H1000.47V10.376H997.258V7.232H993.514V10.376H991.522V13.256H993.514V18.56C993.514 21.632 995.29 23.192 998.338 23.192C999.49 23.192 1000.62 22.928 1001.39 22.376L1000.38 19.736ZM1010.62 9.896C1008.96 9.896 1007.52 10.424 1006.51 11.432V5.192H1002.77V23H1006.51V16.616C1006.51 14.24 1007.81 13.136 1009.61 13.136C1011.26 13.136 1012.22 14.096 1012.22 16.184V23H1015.97V15.608C1015.97 11.672 1013.66 9.896 1010.62 9.896Z" fill="#FF7E00"/>
<path d="M57.6134 244.06C56.2854 244.06 54.9974 243.884 53.7494 243.532C52.5174 243.164 51.5254 242.692 50.7734 242.116L52.0934 239.188C52.8134 239.716 53.6694 240.14 54.6614 240.46C55.6534 240.78 56.6454 240.94 57.6374 240.94C58.7414 240.94 59.5574 240.78 60.0854 240.46C60.6134 240.124 60.8774 239.684 60.8774 239.14C60.8774 238.74 60.7174 238.412 60.3974 238.156C60.0934 237.884 59.6934 237.668 59.1974 237.508C58.7174 237.348 58.0614 237.172 57.2294 236.98C55.9494 236.676 54.9014 236.372 54.0854 236.068C53.2694 235.764 52.5654 235.276 51.9734 234.604C51.3974 233.932 51.1094 233.036 51.1094 231.916C51.1094 230.94 51.3734 230.06 51.9014 229.276C52.4294 228.476 53.2214 227.844 54.2774 227.38C55.3494 226.916 56.6534 226.684 58.1894 226.684C59.2614 226.684 60.3094 226.812 61.3334 227.068C62.3574 227.324 63.2534 227.692 64.0214 228.172L62.8214 231.124C61.2694 230.244 59.7174 229.804 58.1654 229.804C57.0774 229.804 56.2694 229.98 55.7414 230.332C55.2294 230.684 54.9734 231.148 54.9734 231.724C54.9734 232.3 55.2694 232.732 55.8614 233.02C56.4694 233.292 57.3894 233.564 58.6214 233.836C59.9014 234.14 60.9494 234.444 61.7654 234.748C62.5814 235.052 63.2774 235.532 63.8534 236.188C64.4454 236.844 64.7414 237.732 64.7414 238.852C64.7414 239.812 64.4694 240.692 63.9254 241.492C63.3974 242.276 62.5974 242.9 61.5254 243.364C60.4534 243.828 59.1494 244.06 57.6134 244.06ZM78.9957 230.86L73.1637 244.564C72.5717 246.052 71.8357 247.1 70.9557 247.708C70.0917 248.316 69.0437 248.62 67.8117 248.62C67.1397 248.62 66.4757 248.516 65.8197 248.308C65.1637 248.1 64.6277 247.812 64.2117 247.444L65.5797 244.78C65.8677 245.036 66.1957 245.236 66.5637 245.38C66.9477 245.524 67.3237 245.596 67.6917 245.596C68.2037 245.596 68.6197 245.468 68.9397 245.212C69.2597 244.972 69.5477 244.564 69.8037 243.988L69.8517 243.868L64.2597 230.86H68.1237L71.7477 239.62L75.3957 230.86H78.9957ZM83.96 243.964C82.888 243.964 81.84 243.836 80.816 243.58C79.792 243.308 78.976 242.972 78.368 242.572L79.616 239.884C80.192 240.252 80.888 240.556 81.704 240.796C82.52 241.02 83.32 241.132 84.104 241.132C85.688 241.132 86.48 240.74 86.48 239.956C86.48 239.588 86.264 239.324 85.832 239.164C85.4 239.004 84.736 238.868 83.84 238.756C82.784 238.596 81.912 238.412 81.224 238.204C80.536 237.996 79.936 237.628 79.424 237.1C78.928 236.572 78.68 235.82 78.68 234.844C78.68 234.028 78.912 233.308 79.376 232.684C79.856 232.044 80.544 231.548 81.44 231.196C82.352 230.844 83.424 230.668 84.656 230.668C85.568 230.668 86.472 230.772 87.368 230.98C88.28 231.172 89.032 231.444 89.624 231.796L88.376 234.46C87.24 233.82 86 233.5 84.656 233.5C83.856 233.5 83.256 233.612 82.856 233.836C82.456 234.06 82.256 234.348 82.256 234.7C82.256 235.1 82.472 235.38 82.904 235.54C83.336 235.7 84.024 235.852 84.968 235.996C86.024 236.172 86.888 236.364 87.56 236.572C88.232 236.764 88.816 237.124 89.312 237.652C89.808 238.18 90.056 238.916 90.056 239.86C90.056 240.66 89.816 241.372 89.336 241.996C88.856 242.62 88.152 243.108 87.224 243.46C86.312 243.796 85.224 243.964 83.96 243.964ZM99.974 243.148C99.606 243.42 99.15 243.628 98.606 243.772C98.078 243.9 97.518 243.964 96.926 243.964C95.39 243.964 94.198 243.572 93.35 242.788C92.518 242.004 92.102 240.852 92.102 239.332V234.028H90.11V231.148H92.102V228.004H95.846V231.148H99.062V234.028H95.846V239.284C95.846 239.828 95.982 240.252 96.254 240.556C96.542 240.844 96.942 240.988 97.454 240.988C98.046 240.988 98.55 240.828 98.966 240.508L99.974 243.148ZM113.605 237.364C113.605 237.412 113.581 237.748 113.533 238.372H103.765C103.941 239.172 104.357 239.804 105.013 240.268C105.669 240.732 106.485 240.964 107.461 240.964C108.133 240.964 108.725 240.868 109.237 240.676C109.765 240.468 110.253 240.148 110.701 239.716L112.693 241.876C111.477 243.268 109.701 243.964 107.365 243.964C105.909 243.964 104.621 243.684 103.501 243.124C102.381 242.548 101.517 241.756 100.909 240.748C100.301 239.74 99.9972 238.596 99.9972 237.316C99.9972 236.052 100.293 234.916 100.885 233.908C101.493 232.884 102.317 232.092 103.357 231.532C104.413 230.956 105.589 230.668 106.885 230.668C108.149 230.668 109.293 230.94 110.317 231.484C111.341 232.028 112.141 232.812 112.717 233.836C113.309 234.844 113.605 236.02 113.605 237.364ZM106.909 233.5C106.061 233.5 105.349 233.74 104.773 234.22C104.197 234.7 103.845 235.356 103.717 236.188H110.077C109.949 235.372 109.597 234.724 109.021 234.244C108.445 233.748 107.741 233.5 106.909 233.5ZM131.914 230.668C133.53 230.668 134.81 231.148 135.754 232.108C136.714 233.052 137.194 234.476 137.194 236.38V243.772H133.45V236.956C133.45 235.932 133.234 235.172 132.802 234.676C132.386 234.164 131.786 233.908 131.002 233.908C130.122 233.908 129.426 234.196 128.914 234.772C128.402 235.332 128.146 236.172 128.146 237.292V243.772H124.402V236.956C124.402 234.924 123.586 233.908 121.954 233.908C121.09 233.908 120.402 234.196 119.89 234.772C119.378 235.332 119.122 236.172 119.122 237.292V243.772H115.378V230.86H118.954V232.348C119.434 231.804 120.018 231.388 120.706 231.1C121.41 230.812 122.178 230.668 123.01 230.668C123.922 230.668 124.746 230.852 125.482 231.22C126.218 231.572 126.81 232.092 127.258 232.78C127.786 232.108 128.45 231.588 129.25 231.22C130.066 230.852 130.954 230.668 131.914 230.668ZM35.4613 269.172H27.6613L26.1733 272.772H22.1893L29.6773 255.972H33.5173L41.0293 272.772H36.9493L35.4613 269.172ZM34.2373 266.22L31.5733 259.788L28.9093 266.22H34.2373ZM45.3643 261.564C45.8123 260.94 46.4123 260.468 47.1643 260.148C47.9323 259.828 48.8123 259.668 49.8043 259.668V263.124C49.3883 263.092 49.1083 263.076 48.9643 263.076C47.8923 263.076 47.0523 263.38 46.4443 263.988C45.8363 264.58 45.5323 265.476 45.5323 266.676V272.772H41.7883V259.86H45.3643V261.564ZM57.4333 272.964C56.0573 272.964 54.8173 272.684 53.7133 272.124C52.6253 271.548 51.7693 270.756 51.1453 269.748C50.5373 268.74 50.2333 267.596 50.2333 266.316C50.2333 265.036 50.5373 263.892 51.1453 262.884C51.7693 261.876 52.6253 261.092 53.7133 260.532C54.8173 259.956 56.0573 259.668 57.4333 259.668C58.7933 259.668 59.9773 259.956 60.9853 260.532C62.0093 261.092 62.7533 261.9 63.2173 262.956L60.3133 264.516C59.6413 263.332 58.6733 262.74 57.4093 262.74C56.4333 262.74 55.6253 263.06 54.9853 263.7C54.3453 264.34 54.0253 265.212 54.0253 266.316C54.0253 267.42 54.3453 268.292 54.9853 268.932C55.6253 269.572 56.4333 269.892 57.4093 269.892C58.6893 269.892 59.6573 269.3 60.3133 268.116L63.2173 269.7C62.7533 270.724 62.0093 271.524 60.9853 272.1C59.9773 272.676 58.7933 272.964 57.4333 272.964ZM72.4072 259.668C74.0072 259.668 75.2952 260.148 76.2712 261.108C77.2632 262.068 77.7593 263.492 77.7593 265.38V272.772H74.0152V265.956C74.0152 264.932 73.7912 264.172 73.3432 263.676C72.8952 263.164 72.2472 262.908 71.3992 262.908C70.4552 262.908 69.7032 263.204 69.1432 263.796C68.5832 264.372 68.3032 265.236 68.3032 266.388V272.772H64.5592V254.964H68.3032V261.204C68.7992 260.708 69.3992 260.332 70.1032 260.076C70.8072 259.804 71.5752 259.668 72.4072 259.668ZM80.433 259.86H84.177V272.772H80.433V259.86ZM82.305 258.06C81.617 258.06 81.057 257.86 80.625 257.46C80.193 257.06 79.977 256.564 79.977 255.972C79.977 255.38 80.193 254.884 80.625 254.484C81.057 254.084 81.617 253.884 82.305 253.884C82.993 253.884 83.553 254.076 83.985 254.46C84.417 254.844 84.633 255.324 84.633 255.9C84.633 256.524 84.417 257.044 83.985 257.46C83.553 257.86 82.993 258.06 82.305 258.06ZM95.2598 272.148C94.8918 272.42 94.4358 272.628 93.8918 272.772C93.3638 272.9 92.8038 272.964 92.2118 272.964C90.6758 272.964 89.4838 272.572 88.6358 271.788C87.8038 271.004 87.3878 269.852 87.3878 268.332V263.028H85.3958V260.148H87.3878V257.004H91.1318V260.148H94.3478V263.028H91.1318V268.284C91.1318 268.828 91.2678 269.252 91.5398 269.556C91.8278 269.844 92.2278 269.988 92.7398 269.988C93.3318 269.988 93.8358 269.828 94.2518 269.508L95.2598 272.148ZM108.891 266.364C108.891 266.412 108.867 266.748 108.819 267.372H99.051C99.227 268.172 99.643 268.804 100.299 269.268C100.955 269.732 101.771 269.964 102.747 269.964C103.419 269.964 104.011 269.868 104.523 269.676C105.051 269.468 105.539 269.148 105.987 268.716L107.979 270.876C106.763 272.268 104.987 272.964 102.651 272.964C101.195 272.964 99.907 272.684 98.787 272.124C97.667 271.548 96.803 270.756 96.195 269.748C95.587 268.74 95.283 267.596 95.283 266.316C95.283 265.052 95.579 263.916 96.171 262.908C96.779 261.884 97.603 261.092 98.643 260.532C99.699 259.956 100.875 259.668 102.171 259.668C103.435 259.668 104.579 259.94 105.603 260.484C106.627 261.028 107.427 261.812 108.003 262.836C108.595 263.844 108.891 265.02 108.891 266.364ZM102.195 262.5C101.347 262.5 100.635 262.74 100.059 263.22C99.483 263.7 99.131 264.356 99.003 265.188H105.363C105.235 264.372 104.883 263.724 104.307 263.244C103.731 262.748 103.027 262.5 102.195 262.5ZM116.904 272.964C115.528 272.964 114.288 272.684 113.184 272.124C112.096 271.548 111.24 270.756 110.616 269.748C110.008 268.74 109.704 267.596 109.704 266.316C109.704 265.036 110.008 263.892 110.616 262.884C111.24 261.876 112.096 261.092 113.184 260.532C114.288 259.956 115.528 259.668 116.904 259.668C118.264 259.668 119.448 259.956 120.456 260.532C121.48 261.092 122.224 261.9 122.688 262.956L119.784 264.516C119.112 263.332 118.144 262.74 116.88 262.74C115.904 262.74 115.096 263.06 114.456 263.7C113.816 264.34 113.496 265.212 113.496 266.316C113.496 267.42 113.816 268.292 114.456 268.932C115.096 269.572 115.904 269.892 116.88 269.892C118.16 269.892 119.128 269.3 119.784 268.116L122.688 269.7C122.224 270.724 121.48 271.524 120.456 272.1C119.448 272.676 118.264 272.964 116.904 272.964ZM132.639 272.148C132.271 272.42 131.815 272.628 131.271 272.772C130.743 272.9 130.183 272.964 129.591 272.964C128.055 272.964 126.863 272.572 126.015 271.788C125.183 271.004 124.767 269.852 124.767 268.332V263.028H122.775V260.148H124.767V257.004H128.511V260.148H131.727V263.028H128.511V268.284C128.511 268.828 128.647 269.252 128.919 269.556C129.207 269.844 129.607 269.988 130.119 269.988C130.711 269.988 131.215 269.828 131.631 269.508L132.639 272.148ZM147.028 259.86V272.772H143.476V271.236C142.98 271.796 142.388 272.228 141.7 272.532C141.012 272.82 140.268 272.964 139.468 272.964C137.772 272.964 136.428 272.476 135.436 271.5C134.444 270.524 133.948 269.076 133.948 267.156V259.86H137.692V266.604C137.692 268.684 138.564 269.724 140.308 269.724C141.204 269.724 141.924 269.436 142.468 268.86C143.012 268.268 143.284 267.396 143.284 266.244V259.86H147.028ZM153.353 261.564C153.801 260.94 154.401 260.468 155.153 260.148C155.921 259.828 156.801 259.668 157.793 259.668V263.124C157.377 263.092 157.097 263.076 156.953 263.076C155.881 263.076 155.041 263.38 154.433 263.988C153.825 264.58 153.521 265.476 153.521 266.676V272.772H149.777V259.86H153.353V261.564ZM171.83 266.364C171.83 266.412 171.806 266.748 171.758 267.372H161.99C162.166 268.172 162.582 268.804 163.238 269.268C163.894 269.732 164.71 269.964 165.686 269.964C166.358 269.964 166.95 269.868 167.462 269.676C167.99 269.468 168.478 269.148 168.926 268.716L170.918 270.876C169.702 272.268 167.926 272.964 165.59 272.964C164.134 272.964 162.846 272.684 161.726 272.124C160.606 271.548 159.742 270.756 159.134 269.748C158.526 268.74 158.222 267.596 158.222 266.316C158.222 265.052 158.518 263.916 159.11 262.908C159.718 261.884 160.542 261.092 161.582 260.532C162.638 259.956 163.814 259.668 165.11 259.668C166.374 259.668 167.518 259.94 168.542 260.484C169.566 261.028 170.366 261.812 170.942 262.836C171.534 263.844 171.83 265.02 171.83 266.364ZM165.134 262.5C164.286 262.5 163.574 262.74 162.998 263.22C162.422 263.7 162.07 264.356 161.942 265.188H168.302C168.174 264.372 167.822 263.724 167.246 263.244C166.67 262.748 165.966 262.5 165.134 262.5Z" fill="#FF7E00"/>
<path d="M1007.62 116.288C1012.42 116.288 1014.75 113.888 1014.75 111.08C1014.75 104.912 1004.98 107.048 1004.98 103.952C1004.98 102.896 1005.87 102.032 1008.18 102.032C1009.66 102.032 1011.27 102.464 1012.83 103.352L1014.03 100.4C1012.47 99.416 1010.31 98.912 1008.2 98.912C1003.42 98.912 1001.12 101.288 1001.12 104.144C1001.12 110.384 1010.89 108.224 1010.89 111.368C1010.89 112.4 1009.95 113.168 1007.65 113.168C1005.63 113.168 1003.52 112.448 1002.1 111.416L1000.78 114.344C1002.27 115.496 1004.96 116.288 1007.62 116.288ZM1022.66 116.192C1025.38 116.192 1027.51 114.992 1028.45 112.928L1025.54 111.344C1024.85 112.592 1023.82 113.12 1022.64 113.12C1020.74 113.12 1019.26 111.8 1019.26 109.544C1019.26 107.288 1020.74 105.968 1022.64 105.968C1023.82 105.968 1024.85 106.52 1025.54 107.744L1028.45 106.184C1027.51 104.072 1025.38 102.896 1022.66 102.896C1018.46 102.896 1015.46 105.656 1015.46 109.544C1015.46 113.432 1018.46 116.192 1022.66 116.192ZM1035.09 102.896C1033.03 102.896 1030.94 103.448 1029.52 104.456L1030.87 107.072C1031.8 106.328 1033.22 105.872 1034.59 105.872C1036.6 105.872 1037.56 106.808 1037.56 108.416H1034.59C1030.65 108.416 1029.04 110 1029.04 112.28C1029.04 114.512 1030.84 116.192 1033.87 116.192C1035.76 116.192 1037.11 115.568 1037.8 114.392V116H1041.31V108.632C1041.31 104.72 1039.03 102.896 1035.09 102.896ZM1034.8 113.672C1033.48 113.672 1032.69 113.048 1032.69 112.112C1032.69 111.248 1033.24 110.6 1035 110.6H1037.56V111.92C1037.13 113.096 1036.05 113.672 1034.8 113.672ZM1043.98 116H1047.72V98.192H1043.98V116ZM1063.12 109.592C1063.12 105.44 1060.2 102.896 1056.4 102.896C1052.47 102.896 1049.52 105.68 1049.52 109.544C1049.52 113.384 1052.42 116.192 1056.88 116.192C1059.21 116.192 1061.01 115.472 1062.21 114.104L1060.22 111.944C1059.33 112.784 1058.35 113.192 1056.98 113.192C1055.01 113.192 1053.64 112.208 1053.28 110.6H1063.05C1063.08 110.288 1063.12 109.88 1063.12 109.592ZM1056.43 105.728C1058.11 105.728 1059.33 106.784 1059.6 108.416H1053.24C1053.5 106.76 1054.72 105.728 1056.43 105.728Z" fill="#FF7E00"/>
<path d="M351.082 125.2H358.714C360.538 125.2 362.146 125.552 363.538 126.256C364.946 126.944 366.034 127.92 366.802 129.184C367.586 130.448 367.978 131.92 367.978 133.6C367.978 135.28 367.586 136.752 366.802 138.016C366.034 139.28 364.946 140.264 363.538 140.968C362.146 141.656 360.538 142 358.714 142H351.082V125.2ZM358.522 138.808C360.202 138.808 361.538 138.344 362.53 137.416C363.538 136.472 364.042 135.2 364.042 133.6C364.042 132 363.538 130.736 362.53 129.808C361.538 128.864 360.202 128.392 358.522 128.392H354.97V138.808H358.522ZM375.134 128.896C377.134 128.896 378.67 129.376 379.742 130.336C380.814 131.28 381.35 132.712 381.35 134.632V142H377.846V140.392C377.142 141.592 375.83 142.192 373.91 142.192C372.918 142.192 372.054 142.024 371.318 141.688C370.598 141.352 370.046 140.888 369.662 140.296C369.278 139.704 369.086 139.032 369.086 138.28C369.086 137.08 369.534 136.136 370.43 135.448C371.342 134.76 372.742 134.416 374.63 134.416H377.606C377.606 133.6 377.358 132.976 376.862 132.544C376.366 132.096 375.622 131.872 374.63 131.872C373.942 131.872 373.262 131.984 372.59 132.208C371.934 132.416 371.374 132.704 370.91 133.072L369.566 130.456C370.27 129.96 371.11 129.576 372.086 129.304C373.078 129.032 374.094 128.896 375.134 128.896ZM374.846 139.672C375.486 139.672 376.054 139.528 376.55 139.24C377.046 138.936 377.398 138.496 377.606 137.92V136.6H375.038C373.502 136.6 372.734 137.104 372.734 138.112C372.734 138.592 372.918 138.976 373.286 139.264C373.67 139.536 374.19 139.672 374.846 139.672ZM392.347 141.376C391.979 141.648 391.523 141.856 390.979 142C390.451 142.128 389.891 142.192 389.299 142.192C387.763 142.192 386.571 141.8 385.723 141.016C384.891 140.232 384.475 139.08 384.475 137.56V132.256H382.483V129.376H384.475V126.232H388.219V129.376H391.435V132.256H388.219V137.512C388.219 138.056 388.355 138.48 388.627 138.784C388.915 139.072 389.315 139.216 389.827 139.216C390.419 139.216 390.923 139.056 391.339 138.736L392.347 141.376ZM398.937 128.896C400.937 128.896 402.473 129.376 403.545 130.336C404.617 131.28 405.153 132.712 405.153 134.632V142H401.649V140.392C400.945 141.592 399.633 142.192 397.713 142.192C396.721 142.192 395.857 142.024 395.121 141.688C394.401 141.352 393.849 140.888 393.465 140.296C393.081 139.704 392.889 139.032 392.889 138.28C392.889 137.08 393.337 136.136 394.233 135.448C395.145 134.76 396.545 134.416 398.433 134.416H401.409C401.409 133.6 401.161 132.976 400.665 132.544C400.169 132.096 399.425 131.872 398.433 131.872C397.745 131.872 397.065 131.984 396.393 132.208C395.737 132.416 395.177 132.704 394.713 133.072L393.369 130.456C394.073 129.96 394.913 129.576 395.889 129.304C396.881 129.032 397.897 128.896 398.937 128.896ZM398.649 139.672C399.289 139.672 399.857 139.528 400.353 139.24C400.849 138.936 401.201 138.496 401.409 137.92V136.6H398.841C397.305 136.6 396.537 137.104 396.537 138.112C396.537 138.592 396.721 138.976 397.089 139.264C397.473 139.536 397.993 139.672 398.649 139.672ZM418.002 129.376H421.314V132.256H418.098V142H414.354V132.256H412.362V129.376H414.354V128.8C414.354 127.328 414.786 126.16 415.65 125.296C416.53 124.432 417.762 124 419.346 124C419.906 124 420.434 124.064 420.93 124.192C421.442 124.304 421.866 124.472 422.202 124.696L421.218 127.408C420.786 127.104 420.282 126.952 419.706 126.952C418.57 126.952 418.002 127.576 418.002 128.824V129.376ZM428.439 142.192C427.079 142.192 425.855 141.912 424.767 141.352C423.695 140.776 422.855 139.984 422.247 138.976C421.639 137.968 421.335 136.824 421.335 135.544C421.335 134.264 421.639 133.12 422.247 132.112C422.855 131.104 423.695 130.32 424.767 129.76C425.855 129.184 427.079 128.896 428.439 128.896C429.799 128.896 431.015 129.184 432.087 129.76C433.159 130.32 433.999 131.104 434.607 132.112C435.215 133.12 435.519 134.264 435.519 135.544C435.519 136.824 435.215 137.968 434.607 138.976C433.999 139.984 433.159 140.776 432.087 141.352C431.015 141.912 429.799 142.192 428.439 142.192ZM428.439 139.12C429.399 139.12 430.183 138.8 430.791 138.16C431.415 137.504 431.727 136.632 431.727 135.544C431.727 134.456 431.415 133.592 430.791 132.952C430.183 132.296 429.399 131.968 428.439 131.968C427.479 131.968 426.687 132.296 426.063 132.952C425.439 133.592 425.127 134.456 425.127 135.544C425.127 136.632 425.439 137.504 426.063 138.16C426.687 138.8 427.479 139.12 428.439 139.12ZM440.878 130.792C441.326 130.168 441.926 129.696 442.678 129.376C443.446 129.056 444.326 128.896 445.318 128.896V132.352C444.902 132.32 444.622 132.304 444.478 132.304C443.406 132.304 442.566 132.608 441.958 133.216C441.35 133.808 441.046 134.704 441.046 135.904V142H437.302V129.088H440.878V130.792ZM365.71 162.336H369.262V169.152C368.35 169.84 367.294 170.368 366.094 170.736C364.894 171.104 363.686 171.288 362.47 171.288C360.726 171.288 359.158 170.92 357.766 170.184C356.374 169.432 355.278 168.4 354.478 167.088C353.694 165.76 353.302 164.264 353.302 162.6C353.302 160.936 353.694 159.448 354.478 158.136C355.278 156.808 356.382 155.776 357.79 155.04C359.198 154.288 360.782 153.912 362.542 153.912C364.014 153.912 365.35 154.16 366.55 154.656C367.75 155.152 368.758 155.872 369.574 156.816L367.078 159.12C365.878 157.856 364.43 157.224 362.734 157.224C361.662 157.224 360.71 157.448 359.878 157.896C359.046 158.344 358.398 158.976 357.934 159.792C357.47 160.608 357.238 161.544 357.238 162.6C357.238 163.64 357.47 164.568 357.934 165.384C358.398 166.2 359.038 166.84 359.854 167.304C360.686 167.752 361.63 167.976 362.686 167.976C363.806 167.976 364.814 167.736 365.71 167.256V162.336ZM375.466 159.792C375.914 159.168 376.514 158.696 377.266 158.376C378.034 158.056 378.914 157.896 379.906 157.896V161.352C379.49 161.32 379.21 161.304 379.066 161.304C377.994 161.304 377.154 161.608 376.546 162.216C375.938 162.808 375.634 163.704 375.634 164.904V171H371.89V158.088H375.466V159.792ZM387.439 171.192C386.079 171.192 384.855 170.912 383.767 170.352C382.695 169.776 381.855 168.984 381.247 167.976C380.639 166.968 380.335 165.824 380.335 164.544C380.335 163.264 380.639 162.12 381.247 161.112C381.855 160.104 382.695 159.32 383.767 158.76C384.855 158.184 386.079 157.896 387.439 157.896C388.799 157.896 390.015 158.184 391.087 158.76C392.159 159.32 392.999 160.104 393.607 161.112C394.215 162.12 394.519 163.264 394.519 164.544C394.519 165.824 394.215 166.968 393.607 167.976C392.999 168.984 392.159 169.776 391.087 170.352C390.015 170.912 388.799 171.192 387.439 171.192ZM387.439 168.12C388.399 168.12 389.183 167.8 389.791 167.16C390.415 166.504 390.727 165.632 390.727 164.544C390.727 163.456 390.415 162.592 389.791 161.952C389.183 161.296 388.399 160.968 387.439 160.968C386.479 160.968 385.687 161.296 385.063 161.952C384.439 162.592 384.127 163.456 384.127 164.544C384.127 165.632 384.439 166.504 385.063 167.16C385.687 167.8 386.479 168.12 387.439 168.12ZM416.686 158.088L412.006 171H408.406L405.502 162.984L402.502 171H398.902L394.246 158.088H397.774L400.822 166.824L403.99 158.088H407.158L410.23 166.824L413.374 158.088H416.686ZM426.386 170.376C426.018 170.648 425.562 170.856 425.018 171C424.49 171.128 423.93 171.192 423.338 171.192C421.802 171.192 420.61 170.8 419.762 170.016C418.93 169.232 418.514 168.08 418.514 166.56V161.256H416.522V158.376H418.514V155.232H422.258V158.376H425.474V161.256H422.258V166.512C422.258 167.056 422.394 167.48 422.666 167.784C422.954 168.072 423.354 168.216 423.866 168.216C424.458 168.216 424.962 168.056 425.378 167.736L426.386 170.376ZM435.616 157.896C437.216 157.896 438.504 158.376 439.48 159.336C440.472 160.296 440.968 161.72 440.968 163.608V171H437.224V164.184C437.224 163.16 437 162.4 436.552 161.904C436.104 161.392 435.456 161.136 434.608 161.136C433.664 161.136 432.912 161.432 432.352 162.024C431.792 162.6 431.512 163.464 431.512 164.616V171H427.768V153.192H431.512V159.432C432.008 158.936 432.608 158.56 433.312 158.304C434.016 158.032 434.784 157.896 435.616 157.896Z" fill="#FF7E00"/>
<path d="M655.35 125.2H662.982C664.806 125.2 666.414 125.552 667.806 126.256C669.214 126.944 670.302 127.92 671.07 129.184C671.854 130.448 672.246 131.92 672.246 133.6C672.246 135.28 671.854 136.752 671.07 138.016C670.302 139.28 669.214 140.264 667.806 140.968C666.414 141.656 664.806 142 662.982 142H655.35V125.2ZM662.79 138.808C664.47 138.808 665.806 138.344 666.798 137.416C667.806 136.472 668.31 135.2 668.31 133.6C668.31 132 667.806 130.736 666.798 129.808C665.806 128.864 664.47 128.392 662.79 128.392H659.238V138.808H662.79ZM679.402 128.896C681.402 128.896 682.938 129.376 684.01 130.336C685.082 131.28 685.618 132.712 685.618 134.632V142H682.114V140.392C681.41 141.592 680.098 142.192 678.178 142.192C677.186 142.192 676.322 142.024 675.586 141.688C674.866 141.352 674.314 140.888 673.93 140.296C673.546 139.704 673.354 139.032 673.354 138.28C673.354 137.08 673.802 136.136 674.698 135.448C675.61 134.76 677.01 134.416 678.898 134.416H681.874C681.874 133.6 681.626 132.976 681.13 132.544C680.634 132.096 679.89 131.872 678.898 131.872C678.21 131.872 677.53 131.984 676.858 132.208C676.202 132.416 675.642 132.704 675.178 133.072L673.834 130.456C674.538 129.96 675.378 129.576 676.354 129.304C677.346 129.032 678.362 128.896 679.402 128.896ZM679.114 139.672C679.754 139.672 680.322 139.528 680.818 139.24C681.314 138.936 681.666 138.496 681.874 137.92V136.6H679.306C677.77 136.6 677.002 137.104 677.002 138.112C677.002 138.592 677.186 138.976 677.554 139.264C677.938 139.536 678.458 139.672 679.114 139.672ZM696.614 141.376C696.246 141.648 695.79 141.856 695.246 142C694.718 142.128 694.158 142.192 693.566 142.192C692.03 142.192 690.838 141.8 689.99 141.016C689.158 140.232 688.742 139.08 688.742 137.56V132.256H686.75V129.376H688.742V126.232H692.486V129.376H695.702V132.256H692.486V137.512C692.486 138.056 692.622 138.48 692.894 138.784C693.182 139.072 693.582 139.216 694.094 139.216C694.686 139.216 695.19 139.056 695.606 138.736L696.614 141.376ZM703.204 128.896C705.204 128.896 706.74 129.376 707.812 130.336C708.884 131.28 709.42 132.712 709.42 134.632V142H705.916V140.392C705.212 141.592 703.9 142.192 701.98 142.192C700.988 142.192 700.124 142.024 699.388 141.688C698.668 141.352 698.116 140.888 697.732 140.296C697.348 139.704 697.156 139.032 697.156 138.28C697.156 137.08 697.604 136.136 698.5 135.448C699.412 134.76 700.812 134.416 702.7 134.416H705.676C705.676 133.6 705.428 132.976 704.932 132.544C704.436 132.096 703.692 131.872 702.7 131.872C702.012 131.872 701.332 131.984 700.66 132.208C700.004 132.416 699.444 132.704 698.98 133.072L697.636 130.456C698.34 129.96 699.18 129.576 700.156 129.304C701.148 129.032 702.164 128.896 703.204 128.896ZM702.916 139.672C703.556 139.672 704.124 139.528 704.62 139.24C705.116 138.936 705.468 138.496 705.676 137.92V136.6H703.108C701.572 136.6 700.804 137.104 700.804 138.112C700.804 138.592 700.988 138.976 701.356 139.264C701.74 139.536 702.26 139.672 702.916 139.672ZM731.318 124.192V142H727.742V140.512C726.814 141.632 725.47 142.192 723.71 142.192C722.494 142.192 721.39 141.92 720.398 141.376C719.422 140.832 718.654 140.056 718.094 139.048C717.534 138.04 717.254 136.872 717.254 135.544C717.254 134.216 717.534 133.048 718.094 132.04C718.654 131.032 719.422 130.256 720.398 129.712C721.39 129.168 722.494 128.896 723.71 128.896C725.358 128.896 726.646 129.416 727.574 130.456V124.192H731.318ZM724.358 139.12C725.302 139.12 726.086 138.8 726.71 138.16C727.334 137.504 727.646 136.632 727.646 135.544C727.646 134.456 727.334 133.592 726.71 132.952C726.086 132.296 725.302 131.968 724.358 131.968C723.398 131.968 722.606 132.296 721.982 132.952C721.358 133.592 721.046 134.456 721.046 135.544C721.046 136.632 721.358 137.504 721.982 138.16C722.606 138.8 723.398 139.12 724.358 139.12ZM737.639 130.792C738.087 130.168 738.687 129.696 739.439 129.376C740.207 129.056 741.087 128.896 742.079 128.896V132.352C741.663 132.32 741.383 132.304 741.239 132.304C740.167 132.304 739.327 132.608 738.719 133.216C738.111 133.808 737.807 134.704 737.807 135.904V142H734.063V129.088H737.639V130.792ZM743.585 129.088H747.329V142H743.585V129.088ZM745.457 127.288C744.769 127.288 744.209 127.088 743.777 126.688C743.345 126.288 743.129 125.792 743.129 125.2C743.129 124.608 743.345 124.112 743.777 123.712C744.209 123.312 744.769 123.112 745.457 123.112C746.145 123.112 746.705 123.304 747.137 123.688C747.569 124.072 747.785 124.552 747.785 125.128C747.785 125.752 747.569 126.272 747.137 126.688C746.705 127.088 746.145 127.288 745.457 127.288ZM762.9 129.088L757.452 142H753.588L748.164 129.088H752.028L755.604 137.872L759.3 129.088H762.9ZM776.004 135.592C776.004 135.64 775.98 135.976 775.932 136.6H766.164C766.34 137.4 766.756 138.032 767.412 138.496C768.068 138.96 768.884 139.192 769.86 139.192C770.532 139.192 771.124 139.096 771.636 138.904C772.164 138.696 772.652 138.376 773.1 137.944L775.092 140.104C773.876 141.496 772.1 142.192 769.764 142.192C768.308 142.192 767.02 141.912 765.9 141.352C764.78 140.776 763.916 139.984 763.308 138.976C762.7 137.968 762.396 136.824 762.396 135.544C762.396 134.28 762.692 133.144 763.284 132.136C763.892 131.112 764.716 130.32 765.756 129.76C766.812 129.184 767.988 128.896 769.284 128.896C770.548 128.896 771.692 129.168 772.716 129.712C773.74 130.256 774.54 131.04 775.116 132.064C775.708 133.072 776.004 134.248 776.004 135.592ZM769.308 131.728C768.46 131.728 767.748 131.968 767.172 132.448C766.596 132.928 766.244 133.584 766.116 134.416H772.476C772.348 133.6 771.996 132.952 771.42 132.472C770.844 131.976 770.14 131.728 769.308 131.728ZM785.624 128.896C787.224 128.896 788.512 129.376 789.488 130.336C790.48 131.296 790.976 132.72 790.976 134.608V142H787.232V135.184C787.232 134.16 787.008 133.4 786.56 132.904C786.112 132.392 785.464 132.136 784.616 132.136C783.672 132.136 782.92 132.432 782.36 133.024C781.8 133.6 781.52 134.464 781.52 135.616V142H777.776V129.088H781.352V130.6C781.848 130.056 782.464 129.64 783.2 129.352C783.936 129.048 784.744 128.896 785.624 128.896ZM679.512 171.288C678.184 171.288 676.896 171.112 675.648 170.76C674.416 170.392 673.424 169.92 672.672 169.344L673.992 166.416C674.712 166.944 675.568 167.368 676.56 167.688C677.552 168.008 678.544 168.168 679.536 168.168C680.64 168.168 681.456 168.008 681.984 167.688C682.512 167.352 682.776 166.912 682.776 166.368C682.776 165.968 682.616 165.64 682.296 165.384C681.992 165.112 681.592 164.896 681.096 164.736C680.616 164.576 679.96 164.4 679.128 164.208C677.848 163.904 676.8 163.6 675.984 163.296C675.168 162.992 674.464 162.504 673.872 161.832C673.296 161.16 673.008 160.264 673.008 159.144C673.008 158.168 673.272 157.288 673.8 156.504C674.328 155.704 675.12 155.072 676.176 154.608C677.248 154.144 678.552 153.912 680.088 153.912C681.16 153.912 682.208 154.04 683.232 154.296C684.256 154.552 685.152 154.92 685.92 155.4L684.72 158.352C683.168 157.472 681.616 157.032 680.064 157.032C678.976 157.032 678.168 157.208 677.64 157.56C677.128 157.912 676.872 158.376 676.872 158.952C676.872 159.528 677.168 159.96 677.76 160.248C678.368 160.52 679.288 160.792 680.52 161.064C681.8 161.368 682.848 161.672 683.664 161.976C684.48 162.28 685.176 162.76 685.752 163.416C686.344 164.072 686.64 164.96 686.64 166.08C686.64 167.04 686.368 167.92 685.824 168.72C685.296 169.504 684.496 170.128 683.424 170.592C682.352 171.056 681.048 171.288 679.512 171.288ZM696.641 170.376C696.273 170.648 695.817 170.856 695.273 171C694.745 171.128 694.185 171.192 693.593 171.192C692.057 171.192 690.865 170.8 690.017 170.016C689.185 169.232 688.769 168.08 688.769 166.56V161.256H686.777V158.376H688.769V155.232H692.513V158.376H695.729V161.256H692.513V166.512C692.513 167.056 692.649 167.48 692.921 167.784C693.209 168.072 693.609 168.216 694.121 168.216C694.713 168.216 695.217 168.056 695.633 167.736L696.641 170.376ZM701.599 159.792C702.047 159.168 702.647 158.696 703.399 158.376C704.167 158.056 705.047 157.896 706.039 157.896V161.352C705.623 161.32 705.343 161.304 705.199 161.304C704.127 161.304 703.287 161.608 702.679 162.216C702.071 162.808 701.767 163.704 701.767 164.904V171H698.023V158.088H701.599V159.792ZM712.683 157.896C714.683 157.896 716.219 158.376 717.291 159.336C718.363 160.28 718.899 161.712 718.899 163.632V171H715.395V169.392C714.691 170.592 713.379 171.192 711.459 171.192C710.467 171.192 709.603 171.024 708.867 170.688C708.147 170.352 707.595 169.888 707.211 169.296C706.827 168.704 706.635 168.032 706.635 167.28C706.635 166.08 707.083 165.136 707.979 164.448C708.891 163.76 710.291 163.416 712.179 163.416H715.155C715.155 162.6 714.907 161.976 714.411 161.544C713.915 161.096 713.171 160.872 712.179 160.872C711.491 160.872 710.811 160.984 710.139 161.208C709.483 161.416 708.923 161.704 708.459 162.072L707.115 159.456C707.819 158.96 708.659 158.576 709.635 158.304C710.627 158.032 711.643 157.896 712.683 157.896ZM712.395 168.672C713.035 168.672 713.603 168.528 714.099 168.24C714.595 167.936 714.947 167.496 715.155 166.92V165.6H712.587C711.051 165.6 710.283 166.104 710.283 167.112C710.283 167.592 710.467 167.976 710.835 168.264C711.219 168.536 711.739 168.672 712.395 168.672ZM729.895 170.376C729.527 170.648 729.071 170.856 728.527 171C727.999 171.128 727.439 171.192 726.847 171.192C725.311 171.192 724.119 170.8 723.271 170.016C722.439 169.232 722.023 168.08 722.023 166.56V161.256H720.031V158.376H722.023V155.232H725.767V158.376H728.983V161.256H725.767V166.512C725.767 167.056 725.903 167.48 726.175 167.784C726.463 168.072 726.863 168.216 727.375 168.216C727.967 168.216 728.471 168.056 728.887 167.736L729.895 170.376ZM743.526 164.592C743.526 164.64 743.502 164.976 743.454 165.6H733.686C733.862 166.4 734.278 167.032 734.934 167.496C735.59 167.96 736.406 168.192 737.382 168.192C738.054 168.192 738.646 168.096 739.158 167.904C739.686 167.696 740.174 167.376 740.622 166.944L742.614 169.104C741.398 170.496 739.622 171.192 737.286 171.192C735.83 171.192 734.542 170.912 733.422 170.352C732.302 169.776 731.438 168.984 730.83 167.976C730.222 166.968 729.918 165.824 729.918 164.544C729.918 163.28 730.214 162.144 730.806 161.136C731.414 160.112 732.238 159.32 733.278 158.76C734.334 158.184 735.51 157.896 736.806 157.896C738.07 157.896 739.214 158.168 740.238 158.712C741.262 159.256 742.062 160.04 742.638 161.064C743.23 162.072 743.526 163.248 743.526 164.592ZM736.83 160.728C735.982 160.728 735.27 160.968 734.694 161.448C734.118 161.928 733.766 162.584 733.638 163.416H739.998C739.87 162.6 739.518 161.952 738.942 161.472C738.366 160.976 737.662 160.728 736.83 160.728ZM758.619 158.088V168.84C758.619 171.208 758.003 172.968 756.771 174.12C755.539 175.272 753.739 175.848 751.371 175.848C750.123 175.848 748.939 175.696 747.819 175.392C746.699 175.088 745.771 174.648 745.035 174.072L746.523 171.384C747.067 171.832 747.755 172.184 748.587 172.44C749.419 172.712 750.251 172.848 751.083 172.848C752.379 172.848 753.331 172.552 753.939 171.96C754.563 171.384 754.875 170.504 754.875 169.32V168.768C753.899 169.84 752.539 170.376 750.795 170.376C749.611 170.376 748.523 170.12 747.531 169.608C746.555 169.08 745.779 168.344 745.203 167.4C744.627 166.456 744.339 165.368 744.339 164.136C744.339 162.904 744.627 161.816 745.203 160.872C745.779 159.928 746.555 159.2 747.531 158.688C748.523 158.16 749.611 157.896 750.795 157.896C752.667 157.896 754.091 158.512 755.067 159.744V158.088H758.619ZM751.539 167.304C752.531 167.304 753.339 167.016 753.963 166.44C754.603 165.848 754.923 165.08 754.923 164.136C754.923 163.192 754.603 162.432 753.963 161.856C753.339 161.264 752.531 160.968 751.539 160.968C750.547 160.968 749.731 161.264 749.091 161.856C748.451 162.432 748.131 163.192 748.131 164.136C748.131 165.08 748.451 165.848 749.091 166.44C749.731 167.016 750.547 167.304 751.539 167.304ZM774.2 158.088L768.368 171.792C767.776 173.28 767.04 174.328 766.16 174.936C765.296 175.544 764.248 175.848 763.016 175.848C762.344 175.848 761.68 175.744 761.024 175.536C760.368 175.328 759.832 175.04 759.416 174.672L760.784 172.008C761.072 172.264 761.4 172.464 761.768 172.608C762.152 172.752 762.528 172.824 762.896 172.824C763.408 172.824 763.824 172.696 764.144 172.44C764.464 172.2 764.752 171.792 765.008 171.216L765.056 171.096L759.464 158.088H763.328L766.952 166.848L770.6 158.088H774.2Z" fill="#FF7E00"/>
<path d="M315.745 73.8918C321.169 76.958 326.194 80.2172 331.515 83.5803C336.837 86.9435 340.87 90.1876 345.798 93.2464L344.203 94.018C341.428 93.4678 338.599 93.258 335.777 93.3931C335.114 93.5141 334.508 93.8488 334.053 94.3465C333.598 94.8442 333.318 95.4779 333.255 96.1515C333.191 96.8251 333.349 97.502 333.703 98.0797C334.058 98.6574 334.59 99.1044 335.219 99.353C338.13 99.6718 341.069 99.5824 343.951 99.0873L353.169 99.8237C353.71 99.8645 354.252 99.7624 354.741 99.5275C355.229 99.2925 355.647 98.933 355.953 98.4848C356.259 98.0365 356.442 97.5152 356.484 96.9727C356.526 96.4303 356.425 95.8857 356.192 95.3932C354.468 92.0669 352.442 88.9062 350.14 85.9512C348.117 82.8981 345.636 80.176 342.785 77.8821C342.413 77.5941 341.953 77.446 341.485 77.4636C341.017 77.4812 340.57 77.6635 340.224 77.9784C339.878 78.2934 339.653 78.721 339.591 79.1864C339.528 79.6518 339.63 80.1252 339.88 80.5238C341.037 83.6658 342.501 86.6868 344.25 89.5425L337.472 83.1731C333.58 79.8516 329.469 76.7983 325.167 74.0344C316.518 68.3975 307.449 63.438 298.043 59.2003C279.793 51.2999 260.183 47.0819 240.339 46.7881C229.329 46.0296 218.3 47.7313 208.047 51.7703C206.651 52.4455 207.525 54.2492 209.212 54.1753C221.182 52.494 233.255 51.6133 245.349 51.5391C257.609 52.462 269.714 54.9175 281.381 58.8486C293.267 62.7963 304.77 67.832 315.745 73.8918Z" fill="#231F20"/>
<path d="M344.667 220.585C344.074 218.996 345.992 216.471 346.43 214.239L340.108 219.439C334.135 223.782 327.899 227.833 321.435 231.571C308.947 238.723 295.671 244.627 281.911 249.146C268.187 253.492 254.106 256.394 240.003 257.782C226.09 260.33 212.207 258.85 200.616 253.584C200.023 251.995 199.175 249.725 202.947 249.612C228.299 253.505 255.443 250.759 281.043 241.711C293.623 237.429 305.765 231.949 317.219 225.384L333.356 214.974L343.524 207.305C338.391 208.563 333.171 209.202 328.024 209.203C327.184 209.229 326.402 208.992 325.823 208.538C325.244 208.083 324.907 207.44 324.873 206.728C324.84 206.016 325.113 205.283 325.641 204.663C326.17 204.044 326.918 203.58 327.749 203.357C336.215 201.588 344.727 200.228 353.244 199.286C354.248 199.153 355.218 199.363 355.943 199.868C356.668 200.374 357.088 201.134 357.111 201.983C356.821 208.752 354.817 215.585 351.239 222.014C349.102 225.655 343.731 224.037 344.667 220.585Z" fill="#231F20"/>
<path d="M962.267 133.585C961.674 131.996 963.592 129.471 964.03 127.239L957.708 132.439C951.735 136.782 945.499 140.833 939.035 144.571C926.548 151.723 913.271 157.627 899.511 162.146C885.787 166.492 871.706 169.394 857.604 170.782C843.69 173.33 829.807 171.85 818.216 166.584C817.623 164.995 816.776 162.725 820.547 162.612C845.899 166.505 873.043 163.759 898.643 154.711C911.223 150.429 923.366 144.949 934.819 138.384L950.956 127.974L961.125 120.305C955.991 121.563 950.771 122.202 945.624 122.203C944.784 122.229 944.002 121.992 943.423 121.538C942.844 121.083 942.507 120.44 942.473 119.728C942.44 119.016 942.713 118.283 943.241 117.663C943.77 117.044 944.518 116.58 945.349 116.357C953.815 114.588 962.327 113.228 970.844 112.286C971.848 112.153 972.818 112.363 973.543 112.868C974.268 113.374 974.688 114.134 974.711 114.983C974.421 121.752 972.418 128.585 968.839 135.014C966.702 138.655 961.331 137.037 962.267 133.585Z" fill="#231F20"/>
<path d="M919.741 55.2304C918.603 54.1847 919.118 51.3405 918.552 49.346L915.564 56.185C912.506 62.182 909.114 68.052 905.407 73.7606C898.218 84.7342 889.871 95.0195 880.56 104.38C871.207 113.585 860.968 121.764 850.085 128.723C839.835 136.545 827.946 141.083 816.355 141.597C815.217 140.552 813.59 139.058 816.608 137.407C838.81 130.088 859.726 116.634 876.784 98.6991C885.234 90.0191 892.834 80.5467 899.426 70.4779L908.235 55.3488L913.327 44.9148C909.677 48.0596 905.7 50.7372 901.52 52.8654C900.848 53.2338 900.115 53.365 899.457 53.2349C898.799 53.1048 898.26 52.7223 897.938 52.1577C897.617 51.5931 897.535 50.8846 897.709 50.1629C897.882 49.4412 898.299 48.7548 898.882 48.2305C905.028 43.2926 911.381 38.6687 917.911 34.3818C918.671 33.8592 919.546 33.6281 920.343 33.739C921.141 33.8499 921.796 34.2939 922.166 34.9735C924.726 40.5928 925.921 46.9721 925.67 53.6744C925.438 57.5159 920.407 58.4219 919.741 55.2304Z" fill="#231F20"/>
<g clip-path="url(#clip0)">
<path d="M490.706 152.207L588.046 150.069C595.981 150.354 603.926 150.18 611.841 149.547L600.254 156.917C599.487 157.426 598.953 158.219 598.77 159.123C598.587 160.026 598.769 160.965 599.278 161.733C599.787 162.501 600.58 163.036 601.483 163.219C602.385 163.402 603.324 163.219 604.091 162.71L620.541 151.521C620.982 151.234 621.343 150.84 621.589 150.374C621.834 149.909 621.957 149.388 621.945 148.861C621.933 148.335 621.789 147.82 621.523 147.366C621.257 146.912 620.879 146.532 620.426 146.265L611.287 138.423C609.454 136.028 606.934 134.248 604.064 133.322C604.064 133.322 602.519 133.356 602.519 133.356C603.443 137.345 605.704 140.898 608.924 143.424L490.57 146.023C484.74 148.007 484.842 152.645 490.706 152.207Z" fill="#231F20"/>
</g>
<defs>
<clipPath id="clip0">
<rect width="136" height="30" fill="white" transform="translate(486 134.985) rotate(-1.25786)"/>
</clipPath>
</defs>
</svg>
