<svg width="20" height="21" viewBox="0 0 20 21" fill="none" xmlns="http://www.w3.org/2000/svg">
<path fill-rule="evenodd" clip-rule="evenodd" d="M13.7498 0.958008H6.25023C4.59256 0.958008 3.00279 1.614 1.83065 2.78167C0.658504 3.94934 0 5.53304 0 7.18438L0 14.6553C0 16.3066 0.658504 17.8903 1.83065 19.058C3.00279 20.2257 4.59256 20.8817 6.25023 20.8817H13.7498C15.4074 20.8817 16.9972 20.2257 18.1694 19.058C19.3415 17.8903 20 16.3066 20 14.6553V7.18438C20 5.53304 19.3415 3.94934 18.1694 2.78167C16.9972 1.614 15.4074 0.958008 13.7498 0.958008V0.958008ZM14.6724 8.53306C14.6775 8.63575 14.679 8.73916 14.679 8.8433C14.679 12.0165 12.2544 15.6764 7.82041 15.6764C6.51007 15.6777 5.22707 15.3031 4.12471 14.5974C5.39974 14.7471 6.68256 14.3898 7.69482 13.6031C7.19197 13.5933 6.70475 13.4273 6.30128 13.1282C5.8978 12.8291 5.59823 12.4118 5.44445 11.9348C5.80579 12.0044 6.17834 11.9903 6.53334 11.8936C5.98785 11.7838 5.49728 11.4894 5.14481 11.0604C4.79234 10.6313 4.59967 10.0941 4.59947 9.5397C4.59947 9.52885 4.59947 9.51873 4.59947 9.5086C4.93316 9.69394 5.30651 9.79709 5.68836 9.80943C5.178 9.46969 4.81681 8.94895 4.6783 8.35324C4.53979 7.75754 4.63439 7.13163 4.94283 6.60296C5.54813 7.34496 6.30333 7.95183 7.15939 8.38414C8.01545 8.81646 8.95322 9.06455 9.9118 9.11231C9.79123 8.59735 9.84454 8.05716 10.0635 7.57544C10.2824 7.09372 10.6547 6.69739 11.1226 6.44785C11.5906 6.19832 12.1282 6.10952 12.652 6.19522C13.1757 6.28092 13.6565 6.53633 14.0198 6.92187C14.5598 6.81607 15.0776 6.61894 15.5508 6.33901C15.371 6.89523 14.9943 7.36736 14.4909 7.66745C14.9687 7.61122 15.4354 7.48398 15.8753 7.28996C15.5512 7.77188 15.144 8.19276 14.6724 8.53306Z" fill="#FF7E00"/>
</svg>
