<svg width="20" height="21" viewBox="0 0 20 21" fill="none" xmlns="http://www.w3.org/2000/svg">
<path fill-rule="evenodd" clip-rule="evenodd" d="M13.7498 0.958008H6.25023C4.59256 0.958008 3.00279 1.614 1.83065 2.78167C0.658504 3.94934 0 5.53304 0 7.18438L0 14.6553C0 16.3066 0.658504 17.8903 1.83065 19.058C3.00279 20.2257 4.59256 20.8817 6.25023 20.8817H13.7498C15.4074 20.8817 16.9972 20.2257 18.1694 19.058C19.3415 17.8903 20 16.3066 20 14.6553V7.18438C20 5.53304 19.3415 3.94934 18.1694 2.78167C16.9972 1.614 15.4074 0.958008 13.7498 0.958008V0.958008ZM16.0001 11.3715C15.9949 12.0179 15.9549 12.6637 15.8804 13.3059C15.8804 13.3059 15.7628 14.1303 15.4034 14.4926C14.9468 14.9692 14.435 14.9713 14.2006 14.9988C12.5215 15.1203 10.0004 15.1239 10.0004 15.1239C10.0004 15.1239 6.87888 15.0957 5.91993 15.0039C5.65279 14.954 5.05317 14.9692 4.59657 14.4926C4.2336 14.131 4.12036 13.3059 4.12036 13.3059C4.04533 12.6637 4.0051 12.018 3.99985 11.3715V10.4646C4.00512 9.81787 4.04535 9.17188 4.12036 8.52945C4.12036 8.52945 4.23723 7.70577 4.59657 7.34347C5.05317 6.86691 5.56495 6.86474 5.79943 6.83726C7.47849 6.7165 9.99746 6.7165 9.99746 6.7165H10.0025C10.0025 6.7165 12.5215 6.7165 14.2006 6.83726C14.435 6.86547 14.9468 6.86764 15.4034 7.34347C15.7628 7.70505 15.8804 8.52945 15.8804 8.52945C15.9549 9.17191 15.9949 9.81789 16.0001 10.4646V11.3715ZM8.76048 9.11159L12.0032 10.7965L8.76048 12.4706V9.11159Z" fill="#FF7E00"/>
</svg>
